<svg width="285" height="188" viewBox="0 0 285 188" fill="none" xmlns="http://www.w3.org/2000/svg">
<path d="M110.479 94.28C108.225 94.28 106.505 93.6533 105.319 92.4C104.145 91.1467 103.559 89.3667 103.559 87.06C103.559 85.9133 103.739 84.8933 104.099 84C104.459 83.0933 104.952 82.3333 105.579 81.72C106.205 81.0933 106.952 80.62 107.819 80.3C108.685 79.98 109.625 79.82 110.639 79.82C111.225 79.82 111.759 79.8667 112.239 79.96C112.719 80.04 113.139 80.14 113.499 80.26C113.859 80.3667 114.159 80.48 114.399 80.6C114.639 80.72 114.812 80.8133 114.919 80.88L114.019 83.4C113.592 83.1733 113.092 82.98 112.519 82.82C111.959 82.66 111.319 82.58 110.599 82.58C110.119 82.58 109.645 82.66 109.179 82.82C108.725 82.98 108.319 83.24 107.959 83.6C107.612 83.9467 107.332 84.4 107.119 84.96C106.905 85.52 106.799 86.2 106.799 87C106.799 87.64 106.865 88.24 106.999 88.8C107.145 89.3467 107.372 89.82 107.679 90.22C107.999 90.62 108.412 90.94 108.919 91.18C109.425 91.4067 110.039 91.52 110.759 91.52C111.212 91.52 111.619 91.4933 111.979 91.44C112.339 91.3867 112.659 91.3267 112.939 91.26C113.219 91.18 113.465 91.0933 113.679 91C113.892 90.9067 114.085 90.82 114.259 90.74L115.119 93.24C114.679 93.5067 114.059 93.7467 113.259 93.96C112.459 94.1733 111.532 94.28 110.479 94.28ZM126.533 88.72C126.533 89.5467 126.413 90.3067 126.173 91C125.933 91.68 125.586 92.2667 125.133 92.76C124.68 93.24 124.133 93.6133 123.493 93.88C122.866 94.1467 122.16 94.28 121.373 94.28C120.6 94.28 119.893 94.1467 119.253 93.88C118.626 93.6133 118.086 93.24 117.633 92.76C117.18 92.2667 116.826 91.68 116.573 91C116.32 90.3067 116.193 89.5467 116.193 88.72C116.193 87.8933 116.32 87.14 116.573 86.46C116.84 85.78 117.2 85.2 117.653 84.72C118.12 84.24 118.666 83.8667 119.293 83.6C119.933 83.3333 120.626 83.2 121.373 83.2C122.133 83.2 122.826 83.3333 123.453 83.6C124.093 83.8667 124.64 84.24 125.093 84.72C125.546 85.2 125.9 85.78 126.153 86.46C126.406 87.14 126.533 87.8933 126.533 88.72ZM123.493 88.72C123.493 87.8 123.306 87.08 122.933 86.56C122.573 86.0267 122.053 85.76 121.373 85.76C120.693 85.76 120.166 86.0267 119.793 86.56C119.42 87.08 119.233 87.8 119.233 88.72C119.233 89.64 119.42 90.3733 119.793 90.92C120.166 91.4533 120.693 91.72 121.373 91.72C122.053 91.72 122.573 91.4533 122.933 90.92C123.306 90.3733 123.493 89.64 123.493 88.72ZM134.621 88.42C134.621 87.46 134.495 86.78 134.241 86.38C134.001 85.98 133.581 85.78 132.981 85.78C132.795 85.78 132.601 85.7933 132.401 85.82C132.201 85.8333 132.008 85.8533 131.821 85.88V94H128.841V83.84C129.095 83.7733 129.388 83.7067 129.721 83.64C130.068 83.56 130.428 83.4933 130.801 83.44C131.188 83.3733 131.581 83.3267 131.981 83.3C132.381 83.26 132.775 83.24 133.161 83.24C133.921 83.24 134.535 83.34 135.001 83.54C135.481 83.7267 135.875 83.9533 136.181 84.22C136.608 83.9133 137.095 83.6733 137.641 83.5C138.201 83.3267 138.715 83.24 139.181 83.24C140.021 83.24 140.708 83.36 141.241 83.6C141.788 83.8267 142.221 84.1533 142.541 84.58C142.861 85.0067 143.081 85.5133 143.201 86.1C143.321 86.6867 143.381 87.34 143.381 88.06V94H140.401V88.42C140.401 87.46 140.275 86.78 140.021 86.38C139.781 85.98 139.361 85.78 138.761 85.78C138.601 85.78 138.375 85.82 138.081 85.9C137.801 85.98 137.568 86.08 137.381 86.2C137.475 86.5067 137.535 86.8333 137.561 87.18C137.588 87.5133 137.601 87.8733 137.601 88.26V94H134.621V88.42ZM150.648 78.48C151.208 78.48 151.721 78.54 152.188 78.66C152.654 78.7667 153.014 78.8733 153.268 78.98L152.688 81.36C152.421 81.24 152.128 81.1533 151.808 81.1C151.501 81.0333 151.214 81 150.948 81C150.588 81 150.281 81.0533 150.028 81.16C149.788 81.2533 149.594 81.3867 149.448 81.56C149.314 81.7333 149.214 81.94 149.148 82.18C149.094 82.42 149.068 82.68 149.068 82.96V83.48H152.748V85.96H149.068V94H146.088V82.92C146.088 81.56 146.468 80.48 147.228 79.68C148.001 78.88 149.141 78.48 150.648 78.48ZM164.209 88.72C164.209 89.5467 164.089 90.3067 163.849 91C163.609 91.68 163.262 92.2667 162.809 92.76C162.355 93.24 161.809 93.6133 161.169 93.88C160.542 94.1467 159.835 94.28 159.049 94.28C158.275 94.28 157.569 94.1467 156.929 93.88C156.302 93.6133 155.762 93.24 155.309 92.76C154.855 92.2667 154.502 91.68 154.249 91C153.995 90.3067 153.869 89.5467 153.869 88.72C153.869 87.8933 153.995 87.14 154.249 86.46C154.515 85.78 154.875 85.2 155.329 84.72C155.795 84.24 156.342 83.8667 156.969 83.6C157.609 83.3333 158.302 83.2 159.049 83.2C159.809 83.2 160.502 83.3333 161.129 83.6C161.769 83.8667 162.315 84.24 162.769 84.72C163.222 85.2 163.575 85.78 163.829 86.46C164.082 87.14 164.209 87.8933 164.209 88.72ZM161.169 88.72C161.169 87.8 160.982 87.08 160.609 86.56C160.249 86.0267 159.729 85.76 159.049 85.76C158.369 85.76 157.842 86.0267 157.469 86.56C157.095 87.08 156.909 87.8 156.909 88.72C156.909 89.64 157.095 90.3733 157.469 90.92C157.842 91.4533 158.369 91.72 159.049 91.72C159.729 91.72 160.249 91.4533 160.609 90.92C160.982 90.3733 161.169 89.64 161.169 88.72ZM172.857 86.12C172.591 86.0533 172.277 85.9867 171.917 85.92C171.557 85.84 171.171 85.8 170.757 85.8C170.571 85.8 170.344 85.82 170.077 85.86C169.824 85.8867 169.631 85.92 169.497 85.96V94H166.517V84.04C167.051 83.8533 167.677 83.68 168.397 83.52C169.131 83.3467 169.944 83.26 170.837 83.26C170.997 83.26 171.191 83.2733 171.417 83.3C171.644 83.3133 171.871 83.34 172.097 83.38C172.324 83.4067 172.551 83.4467 172.777 83.5C173.004 83.54 173.197 83.5933 173.357 83.66L172.857 86.12ZM174.855 80.86L177.835 80.38V83.48H181.415V85.96H177.835V89.66C177.835 90.2867 177.941 90.7867 178.155 91.16C178.381 91.5333 178.828 91.72 179.495 91.72C179.815 91.72 180.141 91.6933 180.475 91.64C180.821 91.5733 181.135 91.4867 181.415 91.38L181.835 93.7C181.475 93.8467 181.075 93.9733 180.635 94.08C180.195 94.1867 179.655 94.24 179.015 94.24C178.201 94.24 177.528 94.1333 176.995 93.92C176.461 93.6933 176.035 93.3867 175.715 93C175.395 92.6 175.168 92.12 175.035 91.56C174.915 91 174.855 90.38 174.855 89.7V80.86Z" fill="#1E212C"/>
<path d="M5.41294 127.896C7.03427 127.896 7.84494 127.341 7.84494 126.232C7.84494 125.891 7.77027 125.603 7.62094 125.368C7.48227 125.123 7.29027 124.915 7.04494 124.744C6.7996 124.563 6.51694 124.408 6.19694 124.28C5.8876 124.152 5.55694 124.024 5.20494 123.896C4.7996 123.757 4.4156 123.603 4.05294 123.432C3.69027 123.251 3.3756 123.043 3.10894 122.808C2.84227 122.563 2.62894 122.275 2.46894 121.944C2.3196 121.613 2.24494 121.213 2.24494 120.744C2.24494 119.773 2.5756 119.016 3.23694 118.472C3.89827 117.928 4.81027 117.656 5.97294 117.656C6.64494 117.656 7.25294 117.731 7.79694 117.88C8.3516 118.019 8.75694 118.173 9.01294 118.344L8.51694 119.608C8.29294 119.469 7.95694 119.336 7.50894 119.208C7.0716 119.069 6.5596 119 5.97294 119C5.67427 119 5.39694 119.032 5.14094 119.096C4.88494 119.16 4.66094 119.256 4.46894 119.384C4.27694 119.512 4.12227 119.677 4.00494 119.88C3.89827 120.072 3.84494 120.301 3.84494 120.568C3.84494 120.867 3.9036 121.117 4.02094 121.32C4.13827 121.523 4.3036 121.704 4.51694 121.864C4.73027 122.013 4.9756 122.152 5.25294 122.28C5.54094 122.408 5.8556 122.536 6.19694 122.664C6.67694 122.856 7.11427 123.048 7.50894 123.24C7.91427 123.432 8.26094 123.661 8.54894 123.928C8.8476 124.195 9.07694 124.515 9.23694 124.888C9.39694 125.251 9.47694 125.693 9.47694 126.216C9.47694 127.187 9.1196 127.933 8.40494 128.456C7.70094 128.979 6.7036 129.24 5.41294 129.24C4.9756 129.24 4.57027 129.208 4.19694 129.144C3.83427 129.091 3.50894 129.027 3.22094 128.952C2.93294 128.867 2.68227 128.781 2.46894 128.696C2.26627 128.6 2.10627 128.52 1.98894 128.456L2.45294 127.176C2.69827 127.315 3.0716 127.469 3.57294 127.64C4.07427 127.811 4.6876 127.896 5.41294 127.896ZM12.7446 129H11.2566V120.68H12.7446V129ZM11.9926 119.176C11.7259 119.176 11.4966 119.091 11.3046 118.92C11.1232 118.739 11.0326 118.499 11.0326 118.2C11.0326 117.901 11.1232 117.667 11.3046 117.496C11.4966 117.315 11.7259 117.224 11.9926 117.224C12.2592 117.224 12.4832 117.315 12.6646 117.496C12.8566 117.667 12.9526 117.901 12.9526 118.2C12.9526 118.499 12.8566 118.739 12.6646 118.92C12.4832 119.091 12.2592 119.176 11.9926 119.176ZM16.6954 120.68H19.8474V121.928H16.6954V125.768C16.6954 126.184 16.7274 126.531 16.7914 126.808C16.8554 127.075 16.9514 127.288 17.0794 127.448C17.2074 127.597 17.3674 127.704 17.5594 127.768C17.7514 127.832 17.9754 127.864 18.2314 127.864C18.6794 127.864 19.0368 127.816 19.3034 127.72C19.5808 127.613 19.7728 127.539 19.8794 127.496L20.1674 128.728C20.0181 128.803 19.7568 128.893 19.3834 129C19.0101 129.117 18.5834 129.176 18.1034 129.176C17.5381 129.176 17.0688 129.107 16.6954 128.968C16.3328 128.819 16.0394 128.6 15.8154 128.312C15.5914 128.024 15.4314 127.672 15.3354 127.256C15.2501 126.829 15.2074 126.339 15.2074 125.784V118.36L16.6954 118.104V120.68ZM31.9401 120.68C31.5241 122.237 31.0334 123.731 30.4681 125.16C29.9134 126.589 29.3747 127.869 28.8521 129H27.5081C26.9854 127.869 26.4414 126.589 25.8761 125.16C25.3214 123.731 24.8361 122.237 24.4201 120.68H26.0201C26.1481 121.203 26.2974 121.763 26.4681 122.36C26.6494 122.947 26.8361 123.533 27.0281 124.12C27.2307 124.696 27.4334 125.256 27.6361 125.8C27.8387 126.344 28.0307 126.829 28.2121 127.256C28.3934 126.829 28.5854 126.344 28.7881 125.8C28.9907 125.256 29.1881 124.696 29.3801 124.12C29.5827 123.533 29.7694 122.947 29.9401 122.36C30.1214 121.763 30.2761 121.203 30.4041 120.68H31.9401ZM32.7926 124.856C32.7926 124.12 32.8992 123.48 33.1126 122.936C33.3259 122.381 33.6086 121.923 33.9606 121.56C34.3126 121.197 34.7179 120.925 35.1766 120.744C35.6352 120.563 36.1046 120.472 36.5846 120.472C37.7046 120.472 38.5632 120.824 39.1606 121.528C39.7579 122.221 40.0566 123.283 40.0566 124.712C40.0566 124.776 40.0566 124.861 40.0566 124.968C40.0566 125.064 40.0512 125.155 40.0406 125.24H34.3446C34.4086 126.104 34.6592 126.76 35.0966 127.208C35.5339 127.656 36.2166 127.88 37.1446 127.88C37.6672 127.88 38.1046 127.837 38.4566 127.752C38.8192 127.656 39.0912 127.565 39.2726 127.48L39.4806 128.728C39.2992 128.824 38.9792 128.925 38.5206 129.032C38.0726 129.139 37.5606 129.192 36.9846 129.192C36.2592 129.192 35.6299 129.085 35.0966 128.872C34.5739 128.648 34.1419 128.344 33.8006 127.96C33.4592 127.576 33.2032 127.123 33.0326 126.6C32.8726 126.067 32.7926 125.485 32.7926 124.856ZM38.5046 124.04C38.5152 123.368 38.3446 122.819 37.9926 122.392C37.6512 121.955 37.1766 121.736 36.5686 121.736C36.2272 121.736 35.9232 121.805 35.6566 121.944C35.4006 122.072 35.1819 122.243 35.0006 122.456C34.8192 122.669 34.6752 122.915 34.5686 123.192C34.4726 123.469 34.4086 123.752 34.3766 124.04H38.5046ZM42.1941 120.92C42.5354 120.835 42.9887 120.744 43.5541 120.648C44.1194 120.552 44.7701 120.504 45.5061 120.504C46.1674 120.504 46.7167 120.6 47.1541 120.792C47.5914 120.973 47.9381 121.235 48.1941 121.576C48.4607 121.907 48.6474 122.307 48.7541 122.776C48.8607 123.245 48.9141 123.763 48.9141 124.328V129H47.4261V124.648C47.4261 124.136 47.3887 123.699 47.3141 123.336C47.2501 122.973 47.1381 122.68 46.9781 122.456C46.8181 122.232 46.6047 122.072 46.3381 121.976C46.0714 121.869 45.7407 121.816 45.3461 121.816C45.1861 121.816 45.0207 121.821 44.8501 121.832C44.6794 121.843 44.5141 121.859 44.3541 121.88C44.2047 121.891 44.0661 121.907 43.9381 121.928C43.8207 121.949 43.7354 121.965 43.6821 121.976V129H42.1941V120.92ZM52.8696 129H51.3816V120.68H52.8696V129ZM52.1176 119.176C51.8509 119.176 51.6216 119.091 51.4296 118.92C51.2482 118.739 51.1576 118.499 51.1576 118.2C51.1576 117.901 51.2482 117.667 51.4296 117.496C51.6216 117.315 51.8509 117.224 52.1176 117.224C52.3842 117.224 52.6082 117.315 52.7896 117.496C52.9816 117.667 53.0776 117.901 53.0776 118.2C53.0776 118.499 52.9816 118.739 52.7896 118.92C52.6082 119.091 52.3842 119.176 52.1176 119.176ZM58.2444 127.928C58.5964 127.928 58.9058 127.923 59.1724 127.912C59.4498 127.891 59.6791 127.859 59.8604 127.816V125.336C59.7538 125.283 59.5778 125.24 59.3324 125.208C59.0978 125.165 58.8098 125.144 58.4684 125.144C58.2444 125.144 58.0044 125.16 57.7484 125.192C57.5031 125.224 57.2738 125.293 57.0604 125.4C56.8578 125.496 56.6871 125.635 56.5484 125.816C56.4098 125.987 56.3404 126.216 56.3404 126.504C56.3404 127.037 56.5111 127.411 56.8524 127.624C57.1938 127.827 57.6578 127.928 58.2444 127.928ZM58.1164 120.472C58.7138 120.472 59.2151 120.552 59.6204 120.712C60.0364 120.861 60.3671 121.08 60.6124 121.368C60.8684 121.645 61.0498 121.981 61.1564 122.376C61.2631 122.76 61.3164 123.187 61.3164 123.656V128.856C61.1884 128.877 61.0071 128.909 60.7724 128.952C60.5484 128.984 60.2924 129.016 60.0044 129.048C59.7164 129.08 59.4018 129.107 59.0604 129.128C58.7298 129.16 58.3991 129.176 58.0684 129.176C57.5991 129.176 57.1671 129.128 56.7724 129.032C56.3778 128.936 56.0364 128.787 55.7484 128.584C55.4604 128.371 55.2364 128.093 55.0764 127.752C54.9164 127.411 54.8364 127 54.8364 126.52C54.8364 126.061 54.9271 125.667 55.1084 125.336C55.3004 125.005 55.5564 124.739 55.8764 124.536C56.1964 124.333 56.5698 124.184 56.9964 124.088C57.4231 123.992 57.8711 123.944 58.3404 123.944C58.4898 123.944 58.6444 123.955 58.8044 123.976C58.9644 123.987 59.1138 124.008 59.2524 124.04C59.4018 124.061 59.5298 124.083 59.6364 124.104C59.7431 124.125 59.8178 124.141 59.8604 124.152V123.736C59.8604 123.491 59.8338 123.251 59.7804 123.016C59.7271 122.771 59.6311 122.557 59.4924 122.376C59.3538 122.184 59.1618 122.035 58.9164 121.928C58.6818 121.811 58.3724 121.752 57.9884 121.752C57.4978 121.752 57.0658 121.789 56.6924 121.864C56.3298 121.928 56.0578 121.997 55.8764 122.072L55.7004 120.84C55.8924 120.755 56.2124 120.675 56.6604 120.6C57.1084 120.515 57.5938 120.472 58.1164 120.472ZM63.7878 120.92C64.1291 120.835 64.5771 120.744 65.1318 120.648C65.6971 120.552 66.3478 120.504 67.0838 120.504C67.6171 120.504 68.0651 120.579 68.4278 120.728C68.7905 120.867 69.0945 121.075 69.3398 121.352C69.4145 121.299 69.5318 121.224 69.6918 121.128C69.8518 121.032 70.0491 120.941 70.2838 120.856C70.5185 120.76 70.7798 120.68 71.0678 120.616C71.3558 120.541 71.6651 120.504 71.9958 120.504C72.6358 120.504 73.1585 120.6 73.5638 120.792C73.9691 120.973 74.2838 121.235 74.5078 121.576C74.7425 121.917 74.8971 122.323 74.9718 122.792C75.0571 123.261 75.0998 123.773 75.0998 124.328V129H73.6118V124.648C73.6118 124.157 73.5851 123.736 73.5318 123.384C73.4891 123.032 73.3985 122.739 73.2598 122.504C73.1318 122.269 72.9505 122.099 72.7158 121.992C72.4918 121.875 72.1985 121.816 71.8358 121.816C71.3345 121.816 70.9185 121.885 70.5878 122.024C70.2678 122.152 70.0491 122.269 69.9318 122.376C70.0171 122.653 70.0811 122.957 70.1238 123.288C70.1665 123.619 70.1878 123.965 70.1878 124.328V129H68.6998V124.648C68.6998 124.157 68.6731 123.736 68.6198 123.384C68.5665 123.032 68.4705 122.739 68.3318 122.504C68.2038 122.269 68.0225 122.099 67.7878 121.992C67.5638 121.875 67.2758 121.816 66.9238 121.816C66.7745 121.816 66.6145 121.821 66.4438 121.832C66.2731 121.843 66.1078 121.859 65.9478 121.88C65.7985 121.891 65.6598 121.907 65.5318 121.928C65.4038 121.949 65.3185 121.965 65.2758 121.976V129H63.7878V120.92ZM84.0882 127.928C84.4402 127.928 84.7495 127.923 85.0162 127.912C85.2935 127.891 85.5229 127.859 85.7042 127.816V125.336C85.5975 125.283 85.4215 125.24 85.1762 125.208C84.9415 125.165 84.6535 125.144 84.3122 125.144C84.0882 125.144 83.8482 125.16 83.5922 125.192C83.3469 125.224 83.1175 125.293 82.9042 125.4C82.7015 125.496 82.5309 125.635 82.3922 125.816C82.2535 125.987 82.1842 126.216 82.1842 126.504C82.1842 127.037 82.3549 127.411 82.6962 127.624C83.0375 127.827 83.5015 127.928 84.0882 127.928ZM83.9602 120.472C84.5575 120.472 85.0589 120.552 85.4642 120.712C85.8802 120.861 86.2109 121.08 86.4562 121.368C86.7122 121.645 86.8935 121.981 87.0002 122.376C87.1069 122.76 87.1602 123.187 87.1602 123.656V128.856C87.0322 128.877 86.8509 128.909 86.6162 128.952C86.3922 128.984 86.1362 129.016 85.8482 129.048C85.5602 129.08 85.2455 129.107 84.9042 129.128C84.5735 129.16 84.2429 129.176 83.9122 129.176C83.4429 129.176 83.0109 129.128 82.6162 129.032C82.2215 128.936 81.8802 128.787 81.5922 128.584C81.3042 128.371 81.0802 128.093 80.9202 127.752C80.7602 127.411 80.6802 127 80.6802 126.52C80.6802 126.061 80.7709 125.667 80.9522 125.336C81.1442 125.005 81.4002 124.739 81.7202 124.536C82.0402 124.333 82.4135 124.184 82.8402 124.088C83.2669 123.992 83.7149 123.944 84.1842 123.944C84.3335 123.944 84.4882 123.955 84.6482 123.976C84.8082 123.987 84.9575 124.008 85.0962 124.04C85.2455 124.061 85.3735 124.083 85.4802 124.104C85.5869 124.125 85.6615 124.141 85.7042 124.152V123.736C85.7042 123.491 85.6775 123.251 85.6242 123.016C85.5709 122.771 85.4749 122.557 85.3362 122.376C85.1975 122.184 85.0055 122.035 84.7602 121.928C84.5255 121.811 84.2162 121.752 83.8322 121.752C83.3415 121.752 82.9095 121.789 82.5362 121.864C82.1735 121.928 81.9015 121.997 81.7202 122.072L81.5442 120.84C81.7362 120.755 82.0562 120.675 82.5042 120.6C82.9522 120.515 83.4375 120.472 83.9602 120.472ZM96.2556 128.76C95.9142 128.845 95.4609 128.936 94.8956 129.032C94.3409 129.128 93.6956 129.176 92.9596 129.176C92.3196 129.176 91.7809 129.085 91.3436 128.904C90.9062 128.712 90.5542 128.445 90.2876 128.104C90.0209 127.763 89.8289 127.363 89.7116 126.904C89.5942 126.435 89.5356 125.917 89.5356 125.352V120.68H91.0236V125.032C91.0236 126.045 91.1836 126.771 91.5036 127.208C91.8236 127.645 92.3622 127.864 93.1196 127.864C93.2796 127.864 93.4449 127.859 93.6156 127.848C93.7862 127.837 93.9462 127.827 94.0956 127.816C94.2449 127.795 94.3782 127.779 94.4956 127.768C94.6236 127.747 94.7142 127.725 94.7676 127.704V120.68H96.2556V128.76ZM100.211 120.68H103.363V121.928H100.211V125.768C100.211 126.184 100.243 126.531 100.307 126.808C100.371 127.075 100.467 127.288 100.595 127.448C100.723 127.597 100.883 127.704 101.075 127.768C101.267 127.832 101.491 127.864 101.747 127.864C102.195 127.864 102.552 127.816 102.819 127.72C103.096 127.613 103.288 127.539 103.395 127.496L103.683 128.728C103.534 128.803 103.272 128.893 102.899 129C102.526 129.117 102.099 129.176 101.619 129.176C101.054 129.176 100.584 129.107 100.211 128.968C99.8484 128.819 99.5551 128.6 99.3311 128.312C99.1071 128.024 98.9471 127.672 98.8511 127.256C98.7657 126.829 98.7231 126.339 98.7231 125.784V118.36L100.211 118.104V120.68ZM104.636 124.856C104.636 124.12 104.743 123.48 104.956 122.936C105.17 122.381 105.452 121.923 105.804 121.56C106.156 121.197 106.562 120.925 107.02 120.744C107.479 120.563 107.948 120.472 108.428 120.472C109.548 120.472 110.407 120.824 111.004 121.528C111.602 122.221 111.9 123.283 111.9 124.712C111.9 124.776 111.9 124.861 111.9 124.968C111.9 125.064 111.895 125.155 111.884 125.24H106.188C106.252 126.104 106.503 126.76 106.94 127.208C107.378 127.656 108.06 127.88 108.988 127.88C109.511 127.88 109.948 127.837 110.3 127.752C110.663 127.656 110.935 127.565 111.116 127.48L111.324 128.728C111.143 128.824 110.823 128.925 110.364 129.032C109.916 129.139 109.404 129.192 108.828 129.192C108.103 129.192 107.474 129.085 106.94 128.872C106.418 128.648 105.986 128.344 105.644 127.96C105.303 127.576 105.047 127.123 104.876 126.6C104.716 126.067 104.636 125.485 104.636 124.856ZM110.348 124.04C110.359 123.368 110.188 122.819 109.836 122.392C109.495 121.955 109.02 121.736 108.412 121.736C108.071 121.736 107.767 121.805 107.5 121.944C107.244 122.072 107.026 122.243 106.844 122.456C106.663 122.669 106.519 122.915 106.412 123.192C106.316 123.469 106.252 123.752 106.22 124.04H110.348ZM123.117 122.44C122.936 122.291 122.674 122.147 122.333 122.008C121.992 121.869 121.618 121.8 121.213 121.8C120.786 121.8 120.418 121.88 120.109 122.04C119.81 122.189 119.565 122.403 119.373 122.68C119.181 122.947 119.042 123.267 118.957 123.64C118.872 124.013 118.829 124.413 118.829 124.84C118.829 125.811 119.069 126.563 119.549 127.096C120.029 127.619 120.669 127.88 121.469 127.88C121.874 127.88 122.21 127.864 122.477 127.832C122.754 127.789 122.968 127.747 123.117 127.704V122.44ZM123.117 116.84L124.605 116.584V128.76C124.264 128.856 123.826 128.952 123.293 129.048C122.76 129.144 122.146 129.192 121.453 129.192C120.813 129.192 120.237 129.091 119.725 128.888C119.213 128.685 118.776 128.397 118.413 128.024C118.05 127.651 117.768 127.197 117.565 126.664C117.373 126.12 117.277 125.512 117.277 124.84C117.277 124.2 117.357 123.613 117.517 123.08C117.688 122.547 117.933 122.088 118.253 121.704C118.573 121.32 118.962 121.021 119.421 120.808C119.89 120.595 120.424 120.488 121.021 120.488C121.501 120.488 121.922 120.552 122.285 120.68C122.658 120.808 122.936 120.931 123.117 121.048V116.84ZM134.507 124.84C134.507 125.501 134.411 126.099 134.219 126.632C134.027 127.165 133.755 127.624 133.403 128.008C133.061 128.392 132.651 128.691 132.171 128.904C131.691 129.107 131.168 129.208 130.603 129.208C130.037 129.208 129.515 129.107 129.035 128.904C128.555 128.691 128.139 128.392 127.787 128.008C127.445 127.624 127.179 127.165 126.987 126.632C126.795 126.099 126.699 125.501 126.699 124.84C126.699 124.189 126.795 123.597 126.987 123.064C127.179 122.52 127.445 122.056 127.787 121.672C128.139 121.288 128.555 120.995 129.035 120.792C129.515 120.579 130.037 120.472 130.603 120.472C131.168 120.472 131.691 120.579 132.171 120.792C132.651 120.995 133.061 121.288 133.403 121.672C133.755 122.056 134.027 122.52 134.219 123.064C134.411 123.597 134.507 124.189 134.507 124.84ZM132.955 124.84C132.955 123.901 132.741 123.16 132.315 122.616C131.899 122.061 131.328 121.784 130.603 121.784C129.877 121.784 129.301 122.061 128.875 122.616C128.459 123.16 128.251 123.901 128.251 124.84C128.251 125.779 128.459 126.525 128.875 127.08C129.301 127.624 129.877 127.896 130.603 127.896C131.328 127.896 131.899 127.624 132.315 127.08C132.741 126.525 132.955 125.779 132.955 124.84ZM139.096 129.16C138.179 129.139 137.528 128.941 137.144 128.568C136.76 128.195 136.568 127.613 136.568 126.824V116.84L138.056 116.584V126.584C138.056 126.829 138.078 127.032 138.12 127.192C138.163 127.352 138.232 127.48 138.328 127.576C138.424 127.672 138.552 127.747 138.712 127.8C138.872 127.843 139.07 127.88 139.304 127.912L139.096 129.16ZM148.319 124.84C148.319 125.501 148.223 126.099 148.031 126.632C147.839 127.165 147.567 127.624 147.215 128.008C146.874 128.392 146.463 128.691 145.983 128.904C145.503 129.107 144.981 129.208 144.415 129.208C143.85 129.208 143.327 129.107 142.847 128.904C142.367 128.691 141.951 128.392 141.599 128.008C141.258 127.624 140.991 127.165 140.799 126.632C140.607 126.099 140.511 125.501 140.511 124.84C140.511 124.189 140.607 123.597 140.799 123.064C140.991 122.52 141.258 122.056 141.599 121.672C141.951 121.288 142.367 120.995 142.847 120.792C143.327 120.579 143.85 120.472 144.415 120.472C144.981 120.472 145.503 120.579 145.983 120.792C146.463 120.995 146.874 121.288 147.215 121.672C147.567 122.056 147.839 122.52 148.031 123.064C148.223 123.597 148.319 124.189 148.319 124.84ZM146.767 124.84C146.767 123.901 146.554 123.16 146.127 122.616C145.711 122.061 145.141 121.784 144.415 121.784C143.69 121.784 143.114 122.061 142.687 122.616C142.271 123.16 142.063 123.901 142.063 124.84C142.063 125.779 142.271 126.525 142.687 127.08C143.114 127.624 143.69 127.896 144.415 127.896C145.141 127.896 145.711 127.624 146.127 127.08C146.554 126.525 146.767 125.779 146.767 124.84ZM153.485 120.504C153.613 120.504 153.757 120.515 153.917 120.536C154.087 120.547 154.253 120.568 154.413 120.6C154.573 120.621 154.717 120.648 154.845 120.68C154.983 120.701 155.085 120.723 155.149 120.744L154.893 122.04C154.775 121.997 154.578 121.949 154.301 121.896C154.034 121.832 153.687 121.8 153.261 121.8C152.983 121.8 152.706 121.832 152.429 121.896C152.162 121.949 151.986 121.987 151.901 122.008V129H150.413V121.032C150.765 120.904 151.202 120.787 151.725 120.68C152.247 120.563 152.834 120.504 153.485 120.504ZM156.121 124.856C156.121 124.12 156.227 123.48 156.441 122.936C156.654 122.381 156.937 121.923 157.289 121.56C157.641 121.197 158.046 120.925 158.505 120.744C158.963 120.563 159.433 120.472 159.913 120.472C161.033 120.472 161.891 120.824 162.489 121.528C163.086 122.221 163.385 123.283 163.385 124.712C163.385 124.776 163.385 124.861 163.385 124.968C163.385 125.064 163.379 125.155 163.369 125.24H157.673C157.737 126.104 157.987 126.76 158.425 127.208C158.862 127.656 159.545 127.88 160.473 127.88C160.995 127.88 161.433 127.837 161.785 127.752C162.147 127.656 162.419 127.565 162.601 127.48L162.809 128.728C162.627 128.824 162.307 128.925 161.849 129.032C161.401 129.139 160.889 129.192 160.313 129.192C159.587 129.192 158.958 129.085 158.425 128.872C157.902 128.648 157.47 128.344 157.129 127.96C156.787 127.576 156.531 127.123 156.361 126.6C156.201 126.067 156.121 125.485 156.121 124.856ZM161.833 124.04C161.843 123.368 161.673 122.819 161.321 122.392C160.979 121.955 160.505 121.736 159.897 121.736C159.555 121.736 159.251 121.805 158.985 121.944C158.729 122.072 158.51 122.243 158.329 122.456C158.147 122.669 158.003 122.915 157.897 123.192C157.801 123.469 157.737 123.752 157.705 124.04H161.833ZM172.041 127.928C172.393 127.928 172.703 127.923 172.969 127.912C173.247 127.891 173.476 127.859 173.657 127.816V125.336C173.551 125.283 173.375 125.24 173.129 125.208C172.895 125.165 172.607 125.144 172.265 125.144C172.041 125.144 171.801 125.16 171.545 125.192C171.3 125.224 171.071 125.293 170.857 125.4C170.655 125.496 170.484 125.635 170.345 125.816C170.207 125.987 170.137 126.216 170.137 126.504C170.137 127.037 170.308 127.411 170.649 127.624C170.991 127.827 171.455 127.928 172.041 127.928ZM171.913 120.472C172.511 120.472 173.012 120.552 173.417 120.712C173.833 120.861 174.164 121.08 174.409 121.368C174.665 121.645 174.847 121.981 174.953 122.376C175.06 122.76 175.113 123.187 175.113 123.656V128.856C174.985 128.877 174.804 128.909 174.569 128.952C174.345 128.984 174.089 129.016 173.801 129.048C173.513 129.08 173.199 129.107 172.857 129.128C172.527 129.16 172.196 129.176 171.865 129.176C171.396 129.176 170.964 129.128 170.569 129.032C170.175 128.936 169.833 128.787 169.545 128.584C169.257 128.371 169.033 128.093 168.873 127.752C168.713 127.411 168.633 127 168.633 126.52C168.633 126.061 168.724 125.667 168.905 125.336C169.097 125.005 169.353 124.739 169.673 124.536C169.993 124.333 170.367 124.184 170.793 124.088C171.22 123.992 171.668 123.944 172.137 123.944C172.287 123.944 172.441 123.955 172.601 123.976C172.761 123.987 172.911 124.008 173.049 124.04C173.199 124.061 173.327 124.083 173.433 124.104C173.54 124.125 173.615 124.141 173.657 124.152V123.736C173.657 123.491 173.631 123.251 173.577 123.016C173.524 122.771 173.428 122.557 173.289 122.376C173.151 122.184 172.959 122.035 172.713 121.928C172.479 121.811 172.169 121.752 171.785 121.752C171.295 121.752 170.863 121.789 170.489 121.864C170.127 121.928 169.855 121.997 169.673 122.072L169.497 120.84C169.689 120.755 170.009 120.675 170.457 120.6C170.905 120.515 171.391 120.472 171.913 120.472ZM182.961 122.44C182.779 122.291 182.518 122.147 182.177 122.008C181.835 121.869 181.462 121.8 181.057 121.8C180.63 121.8 180.262 121.88 179.953 122.04C179.654 122.189 179.409 122.403 179.217 122.68C179.025 122.947 178.886 123.267 178.801 123.64C178.715 124.013 178.673 124.413 178.673 124.84C178.673 125.811 178.913 126.563 179.393 127.096C179.873 127.619 180.513 127.88 181.313 127.88C181.718 127.88 182.054 127.864 182.321 127.832C182.598 127.789 182.811 127.747 182.961 127.704V122.44ZM182.961 116.84L184.449 116.584V128.76C184.107 128.856 183.67 128.952 183.137 129.048C182.603 129.144 181.99 129.192 181.297 129.192C180.657 129.192 180.081 129.091 179.569 128.888C179.057 128.685 178.619 128.397 178.257 128.024C177.894 127.651 177.611 127.197 177.409 126.664C177.217 126.12 177.121 125.512 177.121 124.84C177.121 124.2 177.201 123.613 177.361 123.08C177.531 122.547 177.777 122.088 178.097 121.704C178.417 121.32 178.806 121.021 179.265 120.808C179.734 120.595 180.267 120.488 180.865 120.488C181.345 120.488 181.766 120.552 182.129 120.68C182.502 120.808 182.779 120.931 182.961 121.048V116.84ZM188.495 129H187.007V120.68H188.495V129ZM187.743 119.176C187.476 119.176 187.247 119.091 187.055 118.92C186.873 118.739 186.783 118.499 186.783 118.2C186.783 117.901 186.873 117.667 187.055 117.496C187.247 117.315 187.476 117.224 187.743 117.224C188.009 117.224 188.233 117.315 188.415 117.496C188.607 117.667 188.703 117.901 188.703 118.2C188.703 118.499 188.607 118.739 188.415 118.92C188.233 119.091 188.009 119.176 187.743 119.176ZM196.829 124.856C196.829 123.885 196.589 123.139 196.109 122.616C195.629 122.093 194.989 121.832 194.189 121.832C193.741 121.832 193.389 121.848 193.133 121.88C192.888 121.912 192.691 121.949 192.541 121.992V127.24C192.723 127.389 192.984 127.533 193.325 127.672C193.667 127.811 194.04 127.88 194.445 127.88C194.872 127.88 195.235 127.805 195.533 127.656C195.843 127.496 196.093 127.283 196.285 127.016C196.477 126.739 196.616 126.419 196.701 126.056C196.787 125.683 196.829 125.283 196.829 124.856ZM198.381 124.856C198.381 125.485 198.296 126.067 198.125 126.6C197.965 127.133 197.725 127.592 197.405 127.976C197.085 128.36 196.691 128.659 196.221 128.872C195.763 129.085 195.235 129.192 194.637 129.192C194.157 129.192 193.731 129.128 193.357 129C192.995 128.872 192.723 128.749 192.541 128.632V131.96H191.053V120.936C191.405 120.851 191.843 120.76 192.365 120.664C192.899 120.557 193.512 120.504 194.205 120.504C194.845 120.504 195.421 120.605 195.933 120.808C196.445 121.011 196.883 121.299 197.245 121.672C197.608 122.045 197.885 122.504 198.077 123.048C198.28 123.581 198.381 124.184 198.381 124.856ZM201.963 129H200.475V120.68H201.963V129ZM201.211 119.176C200.945 119.176 200.715 119.091 200.523 118.92C200.342 118.739 200.251 118.499 200.251 118.2C200.251 117.901 200.342 117.667 200.523 117.496C200.715 117.315 200.945 117.224 201.211 117.224C201.478 117.224 201.702 117.315 201.883 117.496C202.075 117.667 202.171 117.901 202.171 118.2C202.171 118.499 202.075 118.739 201.883 118.92C201.702 119.091 201.478 119.176 201.211 119.176ZM206.458 127.928C207.066 127.928 207.514 127.848 207.802 127.688C208.101 127.528 208.25 127.272 208.25 126.92C208.25 126.557 208.106 126.269 207.818 126.056C207.53 125.843 207.056 125.603 206.394 125.336C206.074 125.208 205.765 125.08 205.466 124.952C205.178 124.813 204.928 124.653 204.714 124.472C204.501 124.291 204.33 124.072 204.202 123.816C204.074 123.56 204.01 123.245 204.01 122.872C204.01 122.136 204.282 121.555 204.826 121.128C205.37 120.691 206.112 120.472 207.05 120.472C207.285 120.472 207.52 120.488 207.754 120.52C207.989 120.541 208.208 120.573 208.41 120.616C208.613 120.648 208.789 120.685 208.938 120.728C209.098 120.771 209.221 120.808 209.306 120.84L209.034 122.12C208.874 122.035 208.624 121.949 208.282 121.864C207.941 121.768 207.53 121.72 207.05 121.72C206.634 121.72 206.272 121.805 205.962 121.976C205.653 122.136 205.498 122.392 205.498 122.744C205.498 122.925 205.53 123.085 205.594 123.224C205.669 123.363 205.776 123.491 205.914 123.608C206.064 123.715 206.245 123.816 206.458 123.912C206.672 124.008 206.928 124.109 207.226 124.216C207.621 124.365 207.973 124.515 208.282 124.664C208.592 124.803 208.853 124.968 209.066 125.16C209.29 125.352 209.461 125.587 209.578 125.864C209.696 126.131 209.754 126.461 209.754 126.856C209.754 127.624 209.466 128.205 208.89 128.6C208.325 128.995 207.514 129.192 206.458 129.192C205.722 129.192 205.146 129.128 204.73 129C204.314 128.883 204.032 128.792 203.882 128.728L204.154 127.448C204.325 127.512 204.597 127.608 204.97 127.736C205.344 127.864 205.84 127.928 206.458 127.928ZM213.151 129H211.663V120.68H213.151V129ZM212.399 119.176C212.132 119.176 211.903 119.091 211.711 118.92C211.529 118.739 211.439 118.499 211.439 118.2C211.439 117.901 211.529 117.667 211.711 117.496C211.903 117.315 212.132 117.224 212.399 117.224C212.665 117.224 212.889 117.315 213.071 117.496C213.263 117.667 213.359 117.901 213.359 118.2C213.359 118.499 213.263 118.739 213.071 118.92C212.889 119.091 212.665 119.176 212.399 119.176ZM219.326 129.192C218.654 129.192 218.062 129.085 217.55 128.872C217.048 128.659 216.622 128.36 216.27 127.976C215.928 127.592 215.672 127.139 215.502 126.616C215.331 126.083 215.246 125.496 215.246 124.856C215.246 124.216 215.336 123.629 215.518 123.096C215.71 122.563 215.976 122.104 216.318 121.72C216.659 121.325 217.075 121.021 217.566 120.808C218.067 120.584 218.622 120.472 219.23 120.472C219.603 120.472 219.976 120.504 220.35 120.568C220.723 120.632 221.08 120.733 221.422 120.872L221.086 122.136C220.862 122.029 220.6 121.944 220.302 121.88C220.014 121.816 219.704 121.784 219.374 121.784C218.542 121.784 217.902 122.045 217.454 122.568C217.016 123.091 216.798 123.853 216.798 124.856C216.798 125.304 216.846 125.715 216.942 126.088C217.048 126.461 217.208 126.781 217.422 127.048C217.646 127.315 217.928 127.523 218.27 127.672C218.611 127.811 219.027 127.88 219.518 127.88C219.912 127.88 220.27 127.843 220.59 127.768C220.91 127.693 221.16 127.613 221.342 127.528L221.55 128.776C221.464 128.829 221.342 128.883 221.182 128.936C221.022 128.979 220.84 129.016 220.638 129.048C220.435 129.091 220.216 129.123 219.982 129.144C219.758 129.176 219.539 129.192 219.326 129.192ZM224.635 129H223.147V120.68H224.635V129ZM223.883 119.176C223.617 119.176 223.387 119.091 223.195 118.92C223.014 118.739 222.923 118.499 222.923 118.2C222.923 117.901 223.014 117.667 223.195 117.496C223.387 117.315 223.617 117.224 223.883 117.224C224.15 117.224 224.374 117.315 224.555 117.496C224.747 117.667 224.843 117.901 224.843 118.2C224.843 118.499 224.747 118.739 224.555 118.92C224.374 119.091 224.15 119.176 223.883 119.176ZM227.194 120.92C227.535 120.835 227.989 120.744 228.554 120.648C229.119 120.552 229.77 120.504 230.506 120.504C231.167 120.504 231.717 120.6 232.154 120.792C232.591 120.973 232.938 121.235 233.194 121.576C233.461 121.907 233.647 122.307 233.754 122.776C233.861 123.245 233.914 123.763 233.914 124.328V129H232.426V124.648C232.426 124.136 232.389 123.699 232.314 123.336C232.25 122.973 232.138 122.68 231.978 122.456C231.818 122.232 231.605 122.072 231.338 121.976C231.071 121.869 230.741 121.816 230.346 121.816C230.186 121.816 230.021 121.821 229.85 121.832C229.679 121.843 229.514 121.859 229.354 121.88C229.205 121.891 229.066 121.907 228.938 121.928C228.821 121.949 228.735 121.965 228.682 121.976V129H227.194V120.92ZM241.598 128.168C241.47 128.253 241.219 128.365 240.846 128.504C240.483 128.632 240.056 128.696 239.566 128.696C239.064 128.696 238.59 128.616 238.142 128.456C237.704 128.296 237.32 128.051 236.99 127.72C236.659 127.379 236.398 126.957 236.206 126.456C236.014 125.955 235.918 125.357 235.918 124.664C235.918 124.056 236.008 123.501 236.19 123C236.371 122.488 236.632 122.051 236.974 121.688C237.326 121.315 237.752 121.027 238.254 120.824C238.755 120.611 239.32 120.504 239.95 120.504C240.643 120.504 241.246 120.557 241.758 120.664C242.28 120.76 242.718 120.851 243.07 120.936V128.36C243.07 129.64 242.739 130.568 242.078 131.144C241.416 131.72 240.414 132.008 239.07 132.008C238.547 132.008 238.051 131.965 237.582 131.88C237.123 131.795 236.723 131.693 236.382 131.576L236.654 130.28C236.952 130.397 237.315 130.499 237.742 130.584C238.179 130.68 238.632 130.728 239.102 130.728C239.987 130.728 240.622 130.552 241.006 130.2C241.4 129.848 241.598 129.288 241.598 128.52V128.168ZM241.582 121.992C241.432 121.949 241.23 121.912 240.974 121.88C240.728 121.837 240.392 121.816 239.966 121.816C239.166 121.816 238.547 122.077 238.11 122.6C237.683 123.123 237.47 123.816 237.47 124.68C237.47 125.16 237.528 125.571 237.646 125.912C237.774 126.253 237.939 126.536 238.142 126.76C238.355 126.984 238.595 127.149 238.862 127.256C239.139 127.363 239.422 127.416 239.71 127.416C240.104 127.416 240.467 127.363 240.798 127.256C241.128 127.139 241.39 127.005 241.582 126.856V121.992ZM249.335 120.92C249.676 120.835 250.129 120.744 250.695 120.648C251.26 120.552 251.911 120.504 252.647 120.504C253.308 120.504 253.857 120.6 254.295 120.792C254.732 120.973 255.079 121.235 255.335 121.576C255.601 121.907 255.788 122.307 255.895 122.776C256.001 123.245 256.055 123.763 256.055 124.328V129H254.567V124.648C254.567 124.136 254.529 123.699 254.455 123.336C254.391 122.973 254.279 122.68 254.119 122.456C253.959 122.232 253.745 122.072 253.479 121.976C253.212 121.869 252.881 121.816 252.487 121.816C252.327 121.816 252.161 121.821 251.991 121.832C251.82 121.843 251.655 121.859 251.495 121.88C251.345 121.891 251.207 121.907 251.079 121.928C250.961 121.949 250.876 121.965 250.823 121.976V129H249.335V120.92ZM265.146 128.76C264.805 128.845 264.352 128.936 263.786 129.032C263.232 129.128 262.586 129.176 261.85 129.176C261.21 129.176 260.672 129.085 260.234 128.904C259.797 128.712 259.445 128.445 259.178 128.104C258.912 127.763 258.72 127.363 258.602 126.904C258.485 126.435 258.426 125.917 258.426 125.352V120.68H259.914V125.032C259.914 126.045 260.074 126.771 260.394 127.208C260.714 127.645 261.253 127.864 262.01 127.864C262.17 127.864 262.336 127.859 262.506 127.848C262.677 127.837 262.837 127.827 262.986 127.816C263.136 127.795 263.269 127.779 263.386 127.768C263.514 127.747 263.605 127.725 263.658 127.704V120.68H265.146V128.76ZM270.206 129.16C269.288 129.139 268.638 128.941 268.254 128.568C267.87 128.195 267.678 127.613 267.678 126.824V116.84L269.166 116.584V126.584C269.166 126.829 269.187 127.032 269.23 127.192C269.272 127.352 269.342 127.48 269.438 127.576C269.534 127.672 269.662 127.747 269.822 127.8C269.982 127.843 270.179 127.88 270.414 127.912L270.206 129.16ZM274.581 129.16C273.663 129.139 273.013 128.941 272.629 128.568C272.245 128.195 272.053 127.613 272.053 126.824V116.84L273.541 116.584V126.584C273.541 126.829 273.562 127.032 273.605 127.192C273.647 127.352 273.717 127.48 273.813 127.576C273.909 127.672 274.037 127.747 274.197 127.8C274.357 127.843 274.554 127.88 274.789 127.912L274.581 129.16ZM279.276 127.928C279.628 127.928 279.937 127.923 280.204 127.912C280.481 127.891 280.71 127.859 280.892 127.816V125.336C280.785 125.283 280.609 125.24 280.364 125.208C280.129 125.165 279.841 125.144 279.5 125.144C279.276 125.144 279.036 125.16 278.78 125.192C278.534 125.224 278.305 125.293 278.092 125.4C277.889 125.496 277.718 125.635 277.58 125.816C277.441 125.987 277.372 126.216 277.372 126.504C277.372 127.037 277.542 127.411 277.884 127.624C278.225 127.827 278.689 127.928 279.276 127.928ZM279.148 120.472C279.745 120.472 280.246 120.552 280.652 120.712C281.068 120.861 281.398 121.08 281.644 121.368C281.9 121.645 282.081 121.981 282.188 122.376C282.294 122.76 282.348 123.187 282.348 123.656V128.856C282.22 128.877 282.038 128.909 281.804 128.952C281.58 128.984 281.324 129.016 281.036 129.048C280.748 129.08 280.433 129.107 280.092 129.128C279.761 129.16 279.43 129.176 279.1 129.176C278.63 129.176 278.198 129.128 277.804 129.032C277.409 128.936 277.068 128.787 276.78 128.584C276.492 128.371 276.268 128.093 276.108 127.752C275.948 127.411 275.868 127 275.868 126.52C275.868 126.061 275.958 125.667 276.14 125.336C276.332 125.005 276.588 124.739 276.908 124.536C277.228 124.333 277.601 124.184 278.028 124.088C278.454 123.992 278.902 123.944 279.372 123.944C279.521 123.944 279.676 123.955 279.836 123.976C279.996 123.987 280.145 124.008 280.284 124.04C280.433 124.061 280.561 124.083 280.668 124.104C280.774 124.125 280.849 124.141 280.892 124.152V123.736C280.892 123.491 280.865 123.251 280.812 123.016C280.758 122.771 280.662 122.557 280.524 122.376C280.385 122.184 280.193 122.035 279.948 121.928C279.713 121.811 279.404 121.752 279.02 121.752C278.529 121.752 278.097 121.789 277.724 121.864C277.361 121.928 277.089 121.997 276.908 122.072L276.732 120.84C276.924 120.755 277.244 120.675 277.692 120.6C278.14 120.515 278.625 120.472 279.148 120.472ZM29.2863 153.928C29.8943 153.928 30.3423 153.848 30.6303 153.688C30.929 153.528 31.0783 153.272 31.0783 152.92C31.0783 152.557 30.9343 152.269 30.6463 152.056C30.3583 151.843 29.8836 151.603 29.2223 151.336C28.9023 151.208 28.593 151.08 28.2943 150.952C28.0063 150.813 27.7556 150.653 27.5423 150.472C27.329 150.291 27.1583 150.072 27.0303 149.816C26.9023 149.56 26.8383 149.245 26.8383 148.872C26.8383 148.136 27.1103 147.555 27.6543 147.128C28.1983 146.691 28.9396 146.472 29.8783 146.472C30.113 146.472 30.3476 146.488 30.5823 146.52C30.817 146.541 31.0356 146.573 31.2383 146.616C31.441 146.648 31.617 146.685 31.7663 146.728C31.9263 146.771 32.049 146.808 32.1343 146.84L31.8623 148.12C31.7023 148.035 31.4516 147.949 31.1103 147.864C30.769 147.768 30.3583 147.72 29.8783 147.72C29.4623 147.72 29.0996 147.805 28.7903 147.976C28.481 148.136 28.3263 148.392 28.3263 148.744C28.3263 148.925 28.3583 149.085 28.4223 149.224C28.497 149.363 28.6036 149.491 28.7423 149.608C28.8916 149.715 29.073 149.816 29.2863 149.912C29.4996 150.008 29.7556 150.109 30.0543 150.216C30.449 150.365 30.801 150.515 31.1103 150.664C31.4196 150.803 31.681 150.968 31.8943 151.16C32.1183 151.352 32.289 151.587 32.4063 151.864C32.5236 152.131 32.5823 152.461 32.5823 152.856C32.5823 153.624 32.2943 154.205 31.7183 154.6C31.153 154.995 30.3423 155.192 29.2863 155.192C28.5503 155.192 27.9743 155.128 27.5583 155C27.1423 154.883 26.8596 154.792 26.7103 154.728L26.9823 153.448C27.153 153.512 27.425 153.608 27.7983 153.736C28.1716 153.864 28.6676 153.928 29.2863 153.928ZM35.9789 155H34.4909V146.68H35.9789V155ZM35.2269 145.176C34.9603 145.176 34.7309 145.091 34.5389 144.92C34.3576 144.739 34.2669 144.499 34.2669 144.2C34.2669 143.901 34.3576 143.667 34.5389 143.496C34.7309 143.315 34.9603 143.224 35.2269 143.224C35.4936 143.224 35.7176 143.315 35.8989 143.496C36.0909 143.667 36.1869 143.901 36.1869 144.2C36.1869 144.499 36.0909 144.739 35.8989 144.92C35.7176 145.091 35.4936 145.176 35.2269 145.176ZM39.9298 146.68H43.0818V147.928H39.9298V151.768C39.9298 152.184 39.9618 152.531 40.0258 152.808C40.0898 153.075 40.1858 153.288 40.3138 153.448C40.4418 153.597 40.6018 153.704 40.7938 153.768C40.9858 153.832 41.2098 153.864 41.4658 153.864C41.9138 153.864 42.2711 153.816 42.5378 153.72C42.8151 153.613 43.0071 153.539 43.1138 153.496L43.4018 154.728C43.2525 154.803 42.9911 154.893 42.6178 155C42.2445 155.117 41.8178 155.176 41.3378 155.176C40.7725 155.176 40.3031 155.107 39.9298 154.968C39.5671 154.819 39.2738 154.6 39.0498 154.312C38.8258 154.024 38.6658 153.672 38.5698 153.256C38.4845 152.829 38.4418 152.339 38.4418 151.784V144.36L39.9298 144.104V146.68ZM52.2944 155.192C51.6224 155.192 51.0304 155.085 50.5184 154.872C50.0171 154.659 49.5904 154.36 49.2384 153.976C48.8971 153.592 48.6411 153.139 48.4704 152.616C48.2998 152.083 48.2144 151.496 48.2144 150.856C48.2144 150.216 48.3051 149.629 48.4864 149.096C48.6784 148.563 48.9451 148.104 49.2864 147.72C49.6278 147.325 50.0438 147.021 50.5344 146.808C51.0358 146.584 51.5904 146.472 52.1984 146.472C52.5718 146.472 52.9451 146.504 53.3184 146.568C53.6918 146.632 54.0491 146.733 54.3904 146.872L54.0544 148.136C53.8304 148.029 53.5691 147.944 53.2704 147.88C52.9824 147.816 52.6731 147.784 52.3424 147.784C51.5104 147.784 50.8704 148.045 50.4224 148.568C49.9851 149.091 49.7664 149.853 49.7664 150.856C49.7664 151.304 49.8144 151.715 49.9104 152.088C50.0171 152.461 50.1771 152.781 50.3904 153.048C50.6144 153.315 50.8971 153.523 51.2384 153.672C51.5798 153.811 51.9958 153.88 52.4864 153.88C52.8811 153.88 53.2384 153.843 53.5584 153.768C53.8784 153.693 54.1291 153.613 54.3104 153.528L54.5184 154.776C54.4331 154.829 54.3104 154.883 54.1504 154.936C53.9904 154.979 53.8091 155.016 53.6064 155.048C53.4038 155.091 53.1851 155.123 52.9504 155.144C52.7264 155.176 52.5078 155.192 52.2944 155.192ZM62.7399 154.76C62.3986 154.845 61.9453 154.936 61.3799 155.032C60.8253 155.128 60.1799 155.176 59.4439 155.176C58.8039 155.176 58.2653 155.085 57.8279 154.904C57.3906 154.712 57.0386 154.445 56.7719 154.104C56.5053 153.763 56.3133 153.363 56.1959 152.904C56.0786 152.435 56.0199 151.917 56.0199 151.352V146.68H57.5079V151.032C57.5079 152.045 57.6679 152.771 57.9879 153.208C58.3079 153.645 58.8466 153.864 59.6039 153.864C59.7639 153.864 59.9293 153.859 60.0999 153.848C60.2706 153.837 60.4306 153.827 60.5799 153.816C60.7293 153.795 60.8626 153.779 60.9799 153.768C61.1079 153.747 61.1986 153.725 61.2519 153.704V146.68H62.7399V154.76ZM67.7994 155.16C66.8821 155.139 66.2314 154.941 65.8474 154.568C65.4634 154.195 65.2714 153.613 65.2714 152.824V142.84L66.7594 142.584V152.584C66.7594 152.829 66.7808 153.032 66.8234 153.192C66.8661 153.352 66.9354 153.48 67.0314 153.576C67.1274 153.672 67.2554 153.747 67.4154 153.8C67.5754 153.843 67.7728 153.88 68.0074 153.912L67.7994 155.16ZM75.4544 150.856C75.4544 149.885 75.2144 149.139 74.7344 148.616C74.2544 148.093 73.6144 147.832 72.8144 147.832C72.3664 147.832 72.0144 147.848 71.7584 147.88C71.5131 147.912 71.3158 147.949 71.1664 147.992V153.24C71.3478 153.389 71.6091 153.533 71.9504 153.672C72.2918 153.811 72.6651 153.88 73.0704 153.88C73.4971 153.88 73.8598 153.805 74.1584 153.656C74.4678 153.496 74.7184 153.283 74.9104 153.016C75.1024 152.739 75.2411 152.419 75.3264 152.056C75.4118 151.683 75.4544 151.283 75.4544 150.856ZM77.0064 150.856C77.0064 151.485 76.9211 152.067 76.7504 152.6C76.5904 153.133 76.3504 153.592 76.0304 153.976C75.7104 154.36 75.3158 154.659 74.8464 154.872C74.3878 155.085 73.8598 155.192 73.2624 155.192C72.7824 155.192 72.3558 155.128 71.9824 155C71.6198 154.872 71.3478 154.749 71.1664 154.632V157.96H69.6784V146.936C70.0304 146.851 70.4678 146.76 70.9904 146.664C71.5238 146.557 72.1371 146.504 72.8304 146.504C73.4704 146.504 74.0464 146.605 74.5584 146.808C75.0704 147.011 75.5078 147.299 75.8704 147.672C76.2331 148.045 76.5104 148.504 76.7024 149.048C76.9051 149.581 77.0064 150.184 77.0064 150.856ZM81.9163 153.928C82.2683 153.928 82.5776 153.923 82.8443 153.912C83.1216 153.891 83.351 153.859 83.5323 153.816V151.336C83.4256 151.283 83.2496 151.24 83.0043 151.208C82.7696 151.165 82.4816 151.144 82.1403 151.144C81.9163 151.144 81.6763 151.16 81.4203 151.192C81.175 151.224 80.9456 151.293 80.7323 151.4C80.5296 151.496 80.359 151.635 80.2203 151.816C80.0816 151.987 80.0123 152.216 80.0123 152.504C80.0123 153.037 80.183 153.411 80.5243 153.624C80.8656 153.827 81.3296 153.928 81.9163 153.928ZM81.7883 146.472C82.3856 146.472 82.887 146.552 83.2923 146.712C83.7083 146.861 84.039 147.08 84.2843 147.368C84.5403 147.645 84.7216 147.981 84.8283 148.376C84.935 148.76 84.9883 149.187 84.9883 149.656V154.856C84.8603 154.877 84.679 154.909 84.4443 154.952C84.2203 154.984 83.9643 155.016 83.6763 155.048C83.3883 155.08 83.0736 155.107 82.7323 155.128C82.4016 155.16 82.071 155.176 81.7403 155.176C81.271 155.176 80.839 155.128 80.4443 155.032C80.0496 154.936 79.7083 154.787 79.4203 154.584C79.1323 154.371 78.9083 154.093 78.7483 153.752C78.5883 153.411 78.5083 153 78.5083 152.52C78.5083 152.061 78.599 151.667 78.7803 151.336C78.9723 151.005 79.2283 150.739 79.5483 150.536C79.8683 150.333 80.2416 150.184 80.6683 150.088C81.095 149.992 81.543 149.944 82.0123 149.944C82.1616 149.944 82.3163 149.955 82.4763 149.976C82.6363 149.987 82.7856 150.008 82.9243 150.04C83.0736 150.061 83.2016 150.083 83.3083 150.104C83.415 150.125 83.4896 150.141 83.5323 150.152V149.736C83.5323 149.491 83.5056 149.251 83.4523 149.016C83.399 148.771 83.303 148.557 83.1643 148.376C83.0256 148.184 82.8336 148.035 82.5883 147.928C82.3536 147.811 82.0443 147.752 81.6603 147.752C81.1696 147.752 80.7376 147.789 80.3643 147.864C80.0016 147.928 79.7296 147.997 79.5483 148.072L79.3723 146.84C79.5643 146.755 79.8843 146.675 80.3323 146.6C80.7803 146.515 81.2656 146.472 81.7883 146.472ZM89.2197 154.136C89.2197 154.424 89.1237 154.675 88.9317 154.888C88.7397 155.101 88.4784 155.208 88.1477 155.208C87.817 155.208 87.5557 155.101 87.3637 154.888C87.1717 154.675 87.0757 154.424 87.0757 154.136C87.0757 153.848 87.1717 153.597 87.3637 153.384C87.5557 153.171 87.817 153.064 88.1477 153.064C88.4784 153.064 88.7397 153.171 88.9317 153.384C89.1237 153.597 89.2197 153.848 89.2197 154.136ZM100.172 153.464C100.066 153.208 99.9216 152.883 99.7403 152.488C99.5696 152.093 99.383 151.667 99.1803 151.208C98.9776 150.749 98.759 150.28 98.5243 149.8C98.3003 149.309 98.087 148.851 97.8843 148.424C97.6816 147.987 97.4896 147.597 97.3083 147.256C97.1376 146.915 96.999 146.653 96.8923 146.472C96.775 147.731 96.679 149.096 96.6043 150.568C96.5296 152.029 96.4656 153.507 96.4123 155H94.8923C94.935 154.04 94.983 153.075 95.0363 152.104C95.0896 151.123 95.1483 150.163 95.2123 149.224C95.287 148.275 95.3616 147.352 95.4363 146.456C95.5216 145.56 95.6123 144.712 95.7083 143.912H97.0683C97.3563 144.381 97.6656 144.936 97.9963 145.576C98.327 146.216 98.6576 146.888 98.9883 147.592C99.319 148.285 99.639 148.984 99.9483 149.688C100.258 150.381 100.54 151.016 100.796 151.592C101.052 151.016 101.335 150.381 101.644 149.688C101.954 148.984 102.274 148.285 102.604 147.592C102.935 146.888 103.266 146.216 103.596 145.576C103.927 144.936 104.236 144.381 104.524 143.912H105.884C106.247 147.485 106.519 151.181 106.7 155H105.18C105.127 153.507 105.063 152.029 104.988 150.568C104.914 149.096 104.818 147.731 104.7 146.472C104.594 146.653 104.45 146.915 104.268 147.256C104.098 147.597 103.911 147.987 103.708 148.424C103.506 148.851 103.287 149.309 103.052 149.8C102.828 150.28 102.615 150.749 102.412 151.208C102.21 151.667 102.018 152.093 101.836 152.488C101.666 152.883 101.527 153.208 101.42 153.464H100.172ZM110.526 155H109.038V146.68H110.526V155ZM109.774 145.176C109.507 145.176 109.278 145.091 109.086 144.92C108.904 144.739 108.814 144.499 108.814 144.2C108.814 143.901 108.904 143.667 109.086 143.496C109.278 143.315 109.507 143.224 109.774 143.224C110.04 143.224 110.264 143.315 110.446 143.496C110.638 143.667 110.734 143.901 110.734 144.2C110.734 144.499 110.638 144.739 110.446 144.92C110.264 145.091 110.04 145.176 109.774 145.176ZM113.085 146.92C113.426 146.835 113.879 146.744 114.445 146.648C115.01 146.552 115.661 146.504 116.397 146.504C117.058 146.504 117.607 146.6 118.045 146.792C118.482 146.973 118.829 147.235 119.085 147.576C119.351 147.907 119.538 148.307 119.645 148.776C119.751 149.245 119.805 149.763 119.805 150.328V155H118.317V150.648C118.317 150.136 118.279 149.699 118.205 149.336C118.141 148.973 118.029 148.68 117.869 148.456C117.709 148.232 117.495 148.072 117.229 147.976C116.962 147.869 116.631 147.816 116.237 147.816C116.077 147.816 115.911 147.821 115.741 147.832C115.57 147.843 115.405 147.859 115.245 147.88C115.095 147.891 114.957 147.907 114.829 147.928C114.711 147.949 114.626 147.965 114.573 147.976V155H113.085V146.92ZM123.76 155H122.272V146.68H123.76V155ZM123.008 145.176C122.742 145.176 122.512 145.091 122.32 144.92C122.139 144.739 122.048 144.499 122.048 144.2C122.048 143.901 122.139 143.667 122.32 143.496C122.512 143.315 122.742 143.224 123.008 143.224C123.275 143.224 123.499 143.315 123.68 143.496C123.872 143.667 123.968 143.901 123.968 144.2C123.968 144.499 123.872 144.739 123.68 144.92C123.499 145.091 123.275 145.176 123.008 145.176ZM126.319 146.92C126.66 146.835 127.108 146.744 127.663 146.648C128.228 146.552 128.879 146.504 129.615 146.504C130.148 146.504 130.596 146.579 130.959 146.728C131.322 146.867 131.626 147.075 131.871 147.352C131.946 147.299 132.063 147.224 132.223 147.128C132.383 147.032 132.58 146.941 132.815 146.856C133.05 146.76 133.311 146.68 133.599 146.616C133.887 146.541 134.196 146.504 134.527 146.504C135.167 146.504 135.69 146.6 136.095 146.792C136.5 146.973 136.815 147.235 137.039 147.576C137.274 147.917 137.428 148.323 137.503 148.792C137.588 149.261 137.631 149.773 137.631 150.328V155H136.143V150.648C136.143 150.157 136.116 149.736 136.063 149.384C136.02 149.032 135.93 148.739 135.791 148.504C135.663 148.269 135.482 148.099 135.247 147.992C135.023 147.875 134.73 147.816 134.367 147.816C133.866 147.816 133.45 147.885 133.119 148.024C132.799 148.152 132.58 148.269 132.463 148.376C132.548 148.653 132.612 148.957 132.655 149.288C132.698 149.619 132.719 149.965 132.719 150.328V155H131.231V150.648C131.231 150.157 131.204 149.736 131.151 149.384C131.098 149.032 131.002 148.739 130.863 148.504C130.735 148.269 130.554 148.099 130.319 147.992C130.095 147.875 129.807 147.816 129.455 147.816C129.306 147.816 129.146 147.821 128.975 147.832C128.804 147.843 128.639 147.859 128.479 147.88C128.33 147.891 128.191 147.907 128.063 147.928C127.935 147.949 127.85 147.965 127.807 147.976V155H126.319V146.92ZM143.803 146.92C144.145 146.835 144.593 146.744 145.147 146.648C145.713 146.552 146.363 146.504 147.099 146.504C147.633 146.504 148.081 146.579 148.443 146.728C148.806 146.867 149.11 147.075 149.355 147.352C149.43 147.299 149.547 147.224 149.707 147.128C149.867 147.032 150.065 146.941 150.299 146.856C150.534 146.76 150.795 146.68 151.083 146.616C151.371 146.541 151.681 146.504 152.011 146.504C152.651 146.504 153.174 146.6 153.579 146.792C153.985 146.973 154.299 147.235 154.523 147.576C154.758 147.917 154.913 148.323 154.987 148.792C155.073 149.261 155.115 149.773 155.115 150.328V155H153.627V150.648C153.627 150.157 153.601 149.736 153.547 149.384C153.505 149.032 153.414 148.739 153.275 148.504C153.147 148.269 152.966 148.099 152.731 147.992C152.507 147.875 152.214 147.816 151.851 147.816C151.35 147.816 150.934 147.885 150.603 148.024C150.283 148.152 150.065 148.269 149.947 148.376C150.033 148.653 150.097 148.957 150.139 149.288C150.182 149.619 150.203 149.965 150.203 150.328V155H148.715V150.648C148.715 150.157 148.689 149.736 148.635 149.384C148.582 149.032 148.486 148.739 148.347 148.504C148.219 148.269 148.038 148.099 147.803 147.992C147.579 147.875 147.291 147.816 146.939 147.816C146.79 147.816 146.63 147.821 146.459 147.832C146.289 147.843 146.123 147.859 145.963 147.88C145.814 147.891 145.675 147.907 145.547 147.928C145.419 147.949 145.334 147.965 145.291 147.976V155H143.803V146.92ZM164.929 150.84C164.929 151.501 164.833 152.099 164.641 152.632C164.449 153.165 164.177 153.624 163.825 154.008C163.483 154.392 163.073 154.691 162.593 154.904C162.113 155.107 161.59 155.208 161.025 155.208C160.459 155.208 159.937 155.107 159.457 154.904C158.977 154.691 158.561 154.392 158.209 154.008C157.867 153.624 157.601 153.165 157.409 152.632C157.217 152.099 157.121 151.501 157.121 150.84C157.121 150.189 157.217 149.597 157.409 149.064C157.601 148.52 157.867 148.056 158.209 147.672C158.561 147.288 158.977 146.995 159.457 146.792C159.937 146.579 160.459 146.472 161.025 146.472C161.59 146.472 162.113 146.579 162.593 146.792C163.073 146.995 163.483 147.288 163.825 147.672C164.177 148.056 164.449 148.52 164.641 149.064C164.833 149.597 164.929 150.189 164.929 150.84ZM163.377 150.84C163.377 149.901 163.163 149.16 162.737 148.616C162.321 148.061 161.75 147.784 161.025 147.784C160.299 147.784 159.723 148.061 159.297 148.616C158.881 149.16 158.673 149.901 158.673 150.84C158.673 151.779 158.881 152.525 159.297 153.08C159.723 153.624 160.299 153.896 161.025 153.896C161.75 153.896 162.321 153.624 162.737 153.08C163.163 152.525 163.377 151.779 163.377 150.84ZM169.518 155.16C168.601 155.139 167.95 154.941 167.566 154.568C167.182 154.195 166.99 153.613 166.99 152.824V142.84L168.478 142.584V152.584C168.478 152.829 168.5 153.032 168.542 153.192C168.585 153.352 168.654 153.48 168.75 153.576C168.846 153.672 168.974 153.747 169.134 153.8C169.294 153.843 169.492 153.88 169.726 153.912L169.518 155.16ZM173.893 155.16C172.976 155.139 172.325 154.941 171.941 154.568C171.557 154.195 171.365 153.613 171.365 152.824V142.84L172.853 142.584V152.584C172.853 152.829 172.875 153.032 172.917 153.192C172.96 153.352 173.029 153.48 173.125 153.576C173.221 153.672 173.349 153.747 173.509 153.8C173.669 153.843 173.867 153.88 174.101 153.912L173.893 155.16ZM177.26 155H175.772V146.68H177.26V155ZM176.508 145.176C176.242 145.176 176.012 145.091 175.82 144.92C175.639 144.739 175.548 144.499 175.548 144.2C175.548 143.901 175.639 143.667 175.82 143.496C176.012 143.315 176.242 143.224 176.508 143.224C176.775 143.224 176.999 143.315 177.18 143.496C177.372 143.667 177.468 143.901 177.468 144.2C177.468 144.499 177.372 144.739 177.18 144.92C176.999 145.091 176.775 145.176 176.508 145.176ZM181.211 146.68H184.363V147.928H181.211V151.768C181.211 152.184 181.243 152.531 181.307 152.808C181.371 153.075 181.467 153.288 181.595 153.448C181.723 153.597 181.883 153.704 182.075 153.768C182.267 153.832 182.491 153.864 182.747 153.864C183.195 153.864 183.552 153.816 183.819 153.72C184.096 153.613 184.288 153.539 184.395 153.496L184.683 154.728C184.534 154.803 184.272 154.893 183.899 155C183.526 155.117 183.099 155.176 182.619 155.176C182.054 155.176 181.584 155.107 181.211 154.968C180.848 154.819 180.555 154.6 180.331 154.312C180.107 154.024 179.947 153.672 179.851 153.256C179.766 152.829 179.723 152.339 179.723 151.784V144.36L181.211 144.104V146.68ZM196.456 146.68C196.04 148.237 195.549 149.731 194.984 151.16C194.429 152.589 193.89 153.869 193.368 155H192.024C191.501 153.869 190.957 152.589 190.392 151.16C189.837 149.731 189.352 148.237 188.936 146.68H190.536C190.664 147.203 190.813 147.763 190.984 148.36C191.165 148.947 191.352 149.533 191.544 150.12C191.746 150.696 191.949 151.256 192.152 151.8C192.354 152.344 192.546 152.829 192.728 153.256C192.909 152.829 193.101 152.344 193.304 151.8C193.506 151.256 193.704 150.696 193.896 150.12C194.098 149.533 194.285 148.947 194.456 148.36C194.637 147.763 194.792 147.203 194.92 146.68H196.456ZM205.116 150.84C205.116 151.501 205.02 152.099 204.828 152.632C204.636 153.165 204.364 153.624 204.012 154.008C203.671 154.392 203.26 154.691 202.78 154.904C202.3 155.107 201.778 155.208 201.212 155.208C200.647 155.208 200.124 155.107 199.644 154.904C199.164 154.691 198.748 154.392 198.396 154.008C198.055 153.624 197.788 153.165 197.596 152.632C197.404 152.099 197.308 151.501 197.308 150.84C197.308 150.189 197.404 149.597 197.596 149.064C197.788 148.52 198.055 148.056 198.396 147.672C198.748 147.288 199.164 146.995 199.644 146.792C200.124 146.579 200.647 146.472 201.212 146.472C201.778 146.472 202.3 146.579 202.78 146.792C203.26 146.995 203.671 147.288 204.012 147.672C204.364 148.056 204.636 148.52 204.828 149.064C205.02 149.597 205.116 150.189 205.116 150.84ZM203.564 150.84C203.564 149.901 203.351 149.16 202.924 148.616C202.508 148.061 201.938 147.784 201.212 147.784C200.487 147.784 199.911 148.061 199.484 148.616C199.068 149.16 198.86 149.901 198.86 150.84C198.86 151.779 199.068 152.525 199.484 153.08C199.911 153.624 200.487 153.896 201.212 153.896C201.938 153.896 202.508 153.624 202.924 153.08C203.351 152.525 203.564 151.779 203.564 150.84ZM209.706 155.16C208.788 155.139 208.138 154.941 207.754 154.568C207.37 154.195 207.178 153.613 207.178 152.824V142.84L208.666 142.584V152.584C208.666 152.829 208.687 153.032 208.73 153.192C208.772 153.352 208.842 153.48 208.938 153.576C209.034 153.672 209.162 153.747 209.322 153.8C209.482 153.843 209.679 153.88 209.914 153.912L209.706 155.16ZM218.209 154.76C217.867 154.845 217.414 154.936 216.849 155.032C216.294 155.128 215.649 155.176 214.913 155.176C214.273 155.176 213.734 155.085 213.297 154.904C212.859 154.712 212.507 154.445 212.241 154.104C211.974 153.763 211.782 153.363 211.665 152.904C211.547 152.435 211.489 151.917 211.489 151.352V146.68H212.977V151.032C212.977 152.045 213.137 152.771 213.457 153.208C213.777 153.645 214.315 153.864 215.073 153.864C215.233 153.864 215.398 153.859 215.569 153.848C215.739 153.837 215.899 153.827 216.049 153.816C216.198 153.795 216.331 153.779 216.449 153.768C216.577 153.747 216.667 153.725 216.721 153.704V146.68H218.209V154.76ZM226.548 150.856C226.548 149.885 226.308 149.139 225.828 148.616C225.348 148.093 224.708 147.832 223.908 147.832C223.46 147.832 223.108 147.848 222.852 147.88C222.607 147.912 222.41 147.949 222.26 147.992V153.24C222.442 153.389 222.703 153.533 223.044 153.672C223.386 153.811 223.759 153.88 224.164 153.88C224.591 153.88 224.954 153.805 225.252 153.656C225.562 153.496 225.812 153.283 226.004 153.016C226.196 152.739 226.335 152.419 226.42 152.056C226.506 151.683 226.548 151.283 226.548 150.856ZM228.1 150.856C228.1 151.485 228.015 152.067 227.844 152.6C227.684 153.133 227.444 153.592 227.124 153.976C226.804 154.36 226.41 154.659 225.94 154.872C225.482 155.085 224.954 155.192 224.356 155.192C223.876 155.192 223.45 155.128 223.076 155C222.714 154.872 222.442 154.749 222.26 154.632V157.96H220.772V146.936C221.124 146.851 221.562 146.76 222.084 146.664C222.618 146.557 223.231 146.504 223.924 146.504C224.564 146.504 225.14 146.605 225.652 146.808C226.164 147.011 226.602 147.299 226.964 147.672C227.327 148.045 227.604 148.504 227.796 149.048C227.999 149.581 228.1 150.184 228.1 150.856ZM231.586 146.68H234.738V147.928H231.586V151.768C231.586 152.184 231.618 152.531 231.682 152.808C231.746 153.075 231.842 153.288 231.97 153.448C232.098 153.597 232.258 153.704 232.45 153.768C232.642 153.832 232.866 153.864 233.122 153.864C233.57 153.864 233.927 153.816 234.194 153.72C234.471 153.613 234.663 153.539 234.77 153.496L235.058 154.728C234.909 154.803 234.647 154.893 234.274 155C233.901 155.117 233.474 155.176 232.994 155.176C232.429 155.176 231.959 155.107 231.586 154.968C231.223 154.819 230.93 154.6 230.706 154.312C230.482 154.024 230.322 153.672 230.226 153.256C230.141 152.829 230.098 152.339 230.098 151.784V144.36L231.586 144.104V146.68ZM239.448 153.928C239.8 153.928 240.109 153.923 240.376 153.912C240.653 153.891 240.882 153.859 241.064 153.816V151.336C240.957 151.283 240.781 151.24 240.536 151.208C240.301 151.165 240.013 151.144 239.672 151.144C239.448 151.144 239.208 151.16 238.952 151.192C238.706 151.224 238.477 151.293 238.264 151.4C238.061 151.496 237.89 151.635 237.752 151.816C237.613 151.987 237.544 152.216 237.544 152.504C237.544 153.037 237.714 153.411 238.056 153.624C238.397 153.827 238.861 153.928 239.448 153.928ZM239.32 146.472C239.917 146.472 240.418 146.552 240.824 146.712C241.24 146.861 241.57 147.08 241.816 147.368C242.072 147.645 242.253 147.981 242.36 148.376C242.466 148.76 242.52 149.187 242.52 149.656V154.856C242.392 154.877 242.21 154.909 241.976 154.952C241.752 154.984 241.496 155.016 241.208 155.048C240.92 155.08 240.605 155.107 240.264 155.128C239.933 155.16 239.602 155.176 239.272 155.176C238.802 155.176 238.37 155.128 237.976 155.032C237.581 154.936 237.24 154.787 236.952 154.584C236.664 154.371 236.44 154.093 236.28 153.752C236.12 153.411 236.04 153 236.04 152.52C236.04 152.061 236.13 151.667 236.312 151.336C236.504 151.005 236.76 150.739 237.08 150.536C237.4 150.333 237.773 150.184 238.2 150.088C238.626 149.992 239.074 149.944 239.544 149.944C239.693 149.944 239.848 149.955 240.008 149.976C240.168 149.987 240.317 150.008 240.456 150.04C240.605 150.061 240.733 150.083 240.84 150.104C240.946 150.125 241.021 150.141 241.064 150.152V149.736C241.064 149.491 241.037 149.251 240.984 149.016C240.93 148.771 240.834 148.557 240.696 148.376C240.557 148.184 240.365 148.035 240.12 147.928C239.885 147.811 239.576 147.752 239.192 147.752C238.701 147.752 238.269 147.789 237.896 147.864C237.533 147.928 237.261 147.997 237.08 148.072L236.904 146.84C237.096 146.755 237.416 146.675 237.864 146.6C238.312 146.515 238.797 146.472 239.32 146.472ZM246.383 146.68H249.535V147.928H246.383V151.768C246.383 152.184 246.415 152.531 246.479 152.808C246.543 153.075 246.639 153.288 246.767 153.448C246.895 153.597 247.055 153.704 247.247 153.768C247.439 153.832 247.663 153.864 247.919 153.864C248.367 153.864 248.724 153.816 248.991 153.72C249.268 153.613 249.46 153.539 249.567 153.496L249.855 154.728C249.706 154.803 249.444 154.893 249.071 155C248.698 155.117 248.271 155.176 247.791 155.176C247.226 155.176 246.756 155.107 246.383 154.968C246.02 154.819 245.727 154.6 245.503 154.312C245.279 154.024 245.119 153.672 245.023 153.256C244.938 152.829 244.895 152.339 244.895 151.784V144.36L246.383 144.104V146.68ZM250.808 150.856C250.808 150.12 250.915 149.48 251.128 148.936C251.342 148.381 251.624 147.923 251.976 147.56C252.328 147.197 252.734 146.925 253.192 146.744C253.651 146.563 254.12 146.472 254.6 146.472C255.72 146.472 256.579 146.824 257.176 147.528C257.774 148.221 258.072 149.283 258.072 150.712C258.072 150.776 258.072 150.861 258.072 150.968C258.072 151.064 258.067 151.155 258.056 151.24H252.36C252.424 152.104 252.675 152.76 253.112 153.208C253.55 153.656 254.232 153.88 255.16 153.88C255.683 153.88 256.12 153.837 256.472 153.752C256.835 153.656 257.107 153.565 257.288 153.48L257.496 154.728C257.315 154.824 256.995 154.925 256.536 155.032C256.088 155.139 255.576 155.192 255 155.192C254.275 155.192 253.646 155.085 253.112 154.872C252.59 154.648 252.158 154.344 251.816 153.96C251.475 153.576 251.219 153.123 251.048 152.6C250.888 152.067 250.808 151.485 250.808 150.856ZM256.52 150.04C256.531 149.368 256.36 148.819 256.008 148.392C255.667 147.955 255.192 147.736 254.584 147.736C254.243 147.736 253.939 147.805 253.672 147.944C253.416 148.072 253.198 148.243 253.016 148.456C252.835 148.669 252.691 148.915 252.584 149.192C252.488 149.469 252.424 149.752 252.392 150.04H256.52ZM65.4353 180.76C65.0939 180.845 64.6406 180.936 64.0753 181.032C63.5206 181.128 62.8753 181.176 62.1393 181.176C61.4993 181.176 60.9606 181.085 60.5233 180.904C60.0859 180.712 59.7339 180.445 59.4673 180.104C59.2006 179.763 59.0086 179.363 58.8913 178.904C58.7739 178.435 58.7153 177.917 58.7153 177.352V172.68H60.2033V177.032C60.2033 178.045 60.3633 178.771 60.6833 179.208C61.0033 179.645 61.5419 179.864 62.2993 179.864C62.4593 179.864 62.6246 179.859 62.7953 179.848C62.9659 179.837 63.1259 179.827 63.2753 179.816C63.4246 179.795 63.5579 179.779 63.6753 179.768C63.8033 179.747 63.8939 179.725 63.9473 179.704V172.68H65.4353V180.76ZM70.4948 181.16C69.5774 181.139 68.9268 180.941 68.5428 180.568C68.1588 180.195 67.9668 179.613 67.9668 178.824V168.84L69.4548 168.584V178.584C69.4548 178.829 69.4761 179.032 69.5188 179.192C69.5614 179.352 69.6308 179.48 69.7268 179.576C69.8228 179.672 69.9508 179.747 70.1108 179.8C70.2708 179.843 70.4681 179.88 70.7028 179.912L70.4948 181.16ZM74.8698 181.16C73.9524 181.139 73.3018 180.941 72.9178 180.568C72.5338 180.195 72.3418 179.613 72.3418 178.824V168.84L73.8298 168.584V178.584C73.8298 178.829 73.8511 179.032 73.8938 179.192C73.9364 179.352 74.0058 179.48 74.1018 179.576C74.1978 179.672 74.3258 179.747 74.4858 179.8C74.6458 179.843 74.8431 179.88 75.0778 179.912L74.8698 181.16ZM79.5648 179.928C79.9168 179.928 80.2261 179.923 80.4928 179.912C80.7701 179.891 80.9994 179.859 81.1808 179.816V177.336C81.0741 177.283 80.8981 177.24 80.6528 177.208C80.4181 177.165 80.1301 177.144 79.7888 177.144C79.5648 177.144 79.3248 177.16 79.0688 177.192C78.8234 177.224 78.5941 177.293 78.3808 177.4C78.1781 177.496 78.0074 177.635 77.8688 177.816C77.7301 177.987 77.6608 178.216 77.6608 178.504C77.6608 179.037 77.8314 179.411 78.1728 179.624C78.5141 179.827 78.9781 179.928 79.5648 179.928ZM79.4368 172.472C80.0341 172.472 80.5354 172.552 80.9408 172.712C81.3568 172.861 81.6874 173.08 81.9328 173.368C82.1888 173.645 82.3701 173.981 82.4768 174.376C82.5834 174.76 82.6368 175.187 82.6368 175.656V180.856C82.5088 180.877 82.3274 180.909 82.0928 180.952C81.8688 180.984 81.6128 181.016 81.3248 181.048C81.0368 181.08 80.7221 181.107 80.3808 181.128C80.0501 181.16 79.7194 181.176 79.3888 181.176C78.9194 181.176 78.4874 181.128 78.0928 181.032C77.6981 180.936 77.3568 180.787 77.0688 180.584C76.7808 180.371 76.5568 180.093 76.3968 179.752C76.2368 179.411 76.1568 179 76.1568 178.52C76.1568 178.061 76.2474 177.667 76.4288 177.336C76.6208 177.005 76.8768 176.739 77.1968 176.536C77.5168 176.333 77.8901 176.184 78.3168 176.088C78.7434 175.992 79.1914 175.944 79.6608 175.944C79.8101 175.944 79.9648 175.955 80.1248 175.976C80.2848 175.987 80.4341 176.008 80.5728 176.04C80.7221 176.061 80.8501 176.083 80.9568 176.104C81.0634 176.125 81.1381 176.141 81.1808 176.152V175.736C81.1808 175.491 81.1541 175.251 81.1008 175.016C81.0474 174.771 80.9514 174.557 80.8128 174.376C80.6741 174.184 80.4821 174.035 80.2368 173.928C80.0021 173.811 79.6928 173.752 79.3088 173.752C78.8181 173.752 78.3861 173.789 78.0128 173.864C77.6501 173.928 77.3781 173.997 77.1968 174.072L77.0208 172.84C77.2128 172.755 77.5328 172.675 77.9808 172.6C78.4288 172.515 78.9141 172.472 79.4368 172.472ZM85.1081 172.92C85.4495 172.835 85.8975 172.744 86.4521 172.648C87.0175 172.552 87.6681 172.504 88.4041 172.504C88.9375 172.504 89.3855 172.579 89.7481 172.728C90.1108 172.867 90.4148 173.075 90.6601 173.352C90.7348 173.299 90.8521 173.224 91.0121 173.128C91.1721 173.032 91.3695 172.941 91.6041 172.856C91.8388 172.76 92.1001 172.68 92.3881 172.616C92.6761 172.541 92.9855 172.504 93.3161 172.504C93.9561 172.504 94.4788 172.6 94.8841 172.792C95.2895 172.973 95.6041 173.235 95.8281 173.576C96.0628 173.917 96.2175 174.323 96.2921 174.792C96.3775 175.261 96.4201 175.773 96.4201 176.328V181H94.9321V176.648C94.9321 176.157 94.9055 175.736 94.8521 175.384C94.8095 175.032 94.7188 174.739 94.5801 174.504C94.4521 174.269 94.2708 174.099 94.0361 173.992C93.8121 173.875 93.5188 173.816 93.1561 173.816C92.6548 173.816 92.2388 173.885 91.9081 174.024C91.5881 174.152 91.3695 174.269 91.2521 174.376C91.3375 174.653 91.4015 174.957 91.4441 175.288C91.4868 175.619 91.5081 175.965 91.5081 176.328V181H90.0201V176.648C90.0201 176.157 89.9935 175.736 89.9401 175.384C89.8868 175.032 89.7908 174.739 89.6521 174.504C89.5241 174.269 89.3428 174.099 89.1081 173.992C88.8841 173.875 88.5961 173.816 88.2441 173.816C88.0948 173.816 87.9348 173.821 87.7641 173.832C87.5935 173.843 87.4281 173.859 87.2681 173.88C87.1188 173.891 86.9801 173.907 86.8521 173.928C86.7241 173.949 86.6388 173.965 86.5961 173.976V181H85.1081V172.92ZM102.505 181.192C101.833 181.192 101.241 181.085 100.729 180.872C100.228 180.659 99.8014 180.36 99.4494 179.976C99.108 179.592 98.852 179.139 98.6814 178.616C98.5107 178.083 98.4254 177.496 98.4254 176.856C98.4254 176.216 98.516 175.629 98.6974 175.096C98.8894 174.563 99.156 174.104 99.4974 173.72C99.8387 173.325 100.255 173.021 100.745 172.808C101.247 172.584 101.801 172.472 102.409 172.472C102.783 172.472 103.156 172.504 103.529 172.568C103.903 172.632 104.26 172.733 104.601 172.872L104.265 174.136C104.041 174.029 103.78 173.944 103.481 173.88C103.193 173.816 102.884 173.784 102.553 173.784C101.721 173.784 101.081 174.045 100.633 174.568C100.196 175.091 99.9774 175.853 99.9774 176.856C99.9774 177.304 100.025 177.715 100.121 178.088C100.228 178.461 100.388 178.781 100.601 179.048C100.825 179.315 101.108 179.523 101.449 179.672C101.791 179.811 102.207 179.88 102.697 179.88C103.092 179.88 103.449 179.843 103.769 179.768C104.089 179.693 104.34 179.613 104.521 179.528L104.729 180.776C104.644 180.829 104.521 180.883 104.361 180.936C104.201 180.979 104.02 181.016 103.817 181.048C103.615 181.091 103.396 181.123 103.161 181.144C102.937 181.176 102.719 181.192 102.505 181.192ZM113.468 176.84C113.468 177.501 113.372 178.099 113.18 178.632C112.988 179.165 112.716 179.624 112.364 180.008C112.022 180.392 111.612 180.691 111.132 180.904C110.652 181.107 110.129 181.208 109.564 181.208C108.998 181.208 108.476 181.107 107.996 180.904C107.516 180.691 107.1 180.392 106.748 180.008C106.406 179.624 106.14 179.165 105.948 178.632C105.756 178.099 105.66 177.501 105.66 176.84C105.66 176.189 105.756 175.597 105.948 175.064C106.14 174.52 106.406 174.056 106.748 173.672C107.1 173.288 107.516 172.995 107.996 172.792C108.476 172.579 108.998 172.472 109.564 172.472C110.129 172.472 110.652 172.579 111.132 172.792C111.612 172.995 112.022 173.288 112.364 173.672C112.716 174.056 112.988 174.52 113.18 175.064C113.372 175.597 113.468 176.189 113.468 176.84ZM111.916 176.84C111.916 175.901 111.702 175.16 111.276 174.616C110.86 174.061 110.289 173.784 109.564 173.784C108.838 173.784 108.262 174.061 107.836 174.616C107.42 175.16 107.212 175.901 107.212 176.84C107.212 177.779 107.42 178.525 107.836 179.08C108.262 179.624 108.838 179.896 109.564 179.896C110.289 179.896 110.86 179.624 111.276 179.08C111.702 178.525 111.916 177.779 111.916 176.84ZM125.04 176.856C125.04 175.885 124.8 175.139 124.32 174.616C123.84 174.093 123.2 173.832 122.4 173.832C121.952 173.832 121.6 173.848 121.344 173.88C121.099 173.912 120.902 173.949 120.752 173.992V179.24C120.934 179.389 121.195 179.533 121.536 179.672C121.878 179.811 122.251 179.88 122.656 179.88C123.083 179.88 123.446 179.805 123.744 179.656C124.054 179.496 124.304 179.283 124.496 179.016C124.688 178.739 124.827 178.419 124.912 178.056C124.998 177.683 125.04 177.283 125.04 176.856ZM126.592 176.856C126.592 177.485 126.507 178.067 126.336 178.6C126.176 179.133 125.936 179.592 125.616 179.976C125.296 180.36 124.902 180.659 124.432 180.872C123.974 181.085 123.446 181.192 122.848 181.192C122.368 181.192 121.942 181.128 121.568 181C121.206 180.872 120.934 180.749 120.752 180.632V183.96H119.264V172.936C119.616 172.851 120.054 172.76 120.576 172.664C121.11 172.557 121.723 172.504 122.416 172.504C123.056 172.504 123.632 172.605 124.144 172.808C124.656 173.011 125.094 173.299 125.456 173.672C125.819 174.045 126.096 174.504 126.288 175.048C126.491 175.581 126.592 176.184 126.592 176.856ZM131.758 172.504C131.886 172.504 132.03 172.515 132.19 172.536C132.361 172.547 132.526 172.568 132.686 172.6C132.846 172.621 132.99 172.648 133.118 172.68C133.257 172.701 133.358 172.723 133.422 172.744L133.166 174.04C133.049 173.997 132.852 173.949 132.574 173.896C132.308 173.832 131.961 173.8 131.534 173.8C131.257 173.8 130.98 173.832 130.702 173.896C130.436 173.949 130.26 173.987 130.174 174.008V181H128.686V173.032C129.038 172.904 129.476 172.787 129.998 172.68C130.521 172.563 131.108 172.504 131.758 172.504ZM142.202 176.84C142.202 177.501 142.106 178.099 141.914 178.632C141.722 179.165 141.45 179.624 141.098 180.008C140.757 180.392 140.346 180.691 139.866 180.904C139.386 181.107 138.863 181.208 138.298 181.208C137.733 181.208 137.21 181.107 136.73 180.904C136.25 180.691 135.834 180.392 135.482 180.008C135.141 179.624 134.874 179.165 134.682 178.632C134.49 178.099 134.394 177.501 134.394 176.84C134.394 176.189 134.49 175.597 134.682 175.064C134.874 174.52 135.141 174.056 135.482 173.672C135.834 173.288 136.25 172.995 136.73 172.792C137.21 172.579 137.733 172.472 138.298 172.472C138.863 172.472 139.386 172.579 139.866 172.792C140.346 172.995 140.757 173.288 141.098 173.672C141.45 174.056 141.722 174.52 141.914 175.064C142.106 175.597 142.202 176.189 142.202 176.84ZM140.65 176.84C140.65 175.901 140.437 175.16 140.01 174.616C139.594 174.061 139.023 173.784 138.298 173.784C137.573 173.784 136.997 174.061 136.57 174.616C136.154 175.16 135.946 175.901 135.946 176.84C135.946 177.779 136.154 178.525 136.57 179.08C136.997 179.624 137.573 179.896 138.298 179.896C139.023 179.896 139.594 179.624 140.01 179.08C140.437 178.525 140.65 177.779 140.65 176.84ZM145.784 181H144.296V172.68H145.784V181ZM145.032 171.176C144.765 171.176 144.536 171.091 144.344 170.92C144.162 170.739 144.072 170.499 144.072 170.2C144.072 169.901 144.162 169.667 144.344 169.496C144.536 169.315 144.765 169.224 145.032 169.224C145.298 169.224 145.522 169.315 145.704 169.496C145.896 169.667 145.992 169.901 145.992 170.2C145.992 170.499 145.896 170.739 145.704 170.92C145.522 171.091 145.298 171.176 145.032 171.176ZM153.719 174.44C153.537 174.291 153.276 174.147 152.935 174.008C152.593 173.869 152.22 173.8 151.815 173.8C151.388 173.8 151.02 173.88 150.711 174.04C150.412 174.189 150.167 174.403 149.975 174.68C149.783 174.947 149.644 175.267 149.559 175.64C149.473 176.013 149.431 176.413 149.431 176.84C149.431 177.811 149.671 178.563 150.151 179.096C150.631 179.619 151.271 179.88 152.071 179.88C152.476 179.88 152.812 179.864 153.079 179.832C153.356 179.789 153.569 179.747 153.719 179.704V174.44ZM153.719 168.84L155.207 168.584V180.76C154.865 180.856 154.428 180.952 153.895 181.048C153.361 181.144 152.748 181.192 152.055 181.192C151.415 181.192 150.839 181.091 150.327 180.888C149.815 180.685 149.377 180.397 149.015 180.024C148.652 179.651 148.369 179.197 148.167 178.664C147.975 178.12 147.879 177.512 147.879 176.84C147.879 176.2 147.959 175.613 148.118 175.08C148.289 174.547 148.535 174.088 148.855 173.704C149.175 173.32 149.564 173.021 150.023 172.808C150.492 172.595 151.025 172.488 151.623 172.488C152.103 172.488 152.524 172.552 152.887 172.68C153.26 172.808 153.537 172.931 153.719 173.048V168.84ZM157.3 176.856C157.3 176.12 157.407 175.48 157.62 174.936C157.834 174.381 158.116 173.923 158.468 173.56C158.82 173.197 159.226 172.925 159.684 172.744C160.143 172.563 160.612 172.472 161.092 172.472C162.212 172.472 163.071 172.824 163.668 173.528C164.266 174.221 164.564 175.283 164.564 176.712C164.564 176.776 164.564 176.861 164.564 176.968C164.564 177.064 164.559 177.155 164.548 177.24H158.852C158.916 178.104 159.167 178.76 159.604 179.208C160.042 179.656 160.724 179.88 161.652 179.88C162.175 179.88 162.612 179.837 162.964 179.752C163.327 179.656 163.599 179.565 163.78 179.48L163.988 180.728C163.807 180.824 163.487 180.925 163.028 181.032C162.58 181.139 162.068 181.192 161.492 181.192C160.767 181.192 160.138 181.085 159.604 180.872C159.082 180.648 158.65 180.344 158.308 179.96C157.967 179.576 157.711 179.123 157.54 178.6C157.38 178.067 157.3 177.485 157.3 176.856ZM163.012 176.04C163.023 175.368 162.852 174.819 162.5 174.392C162.159 173.955 161.684 173.736 161.076 173.736C160.735 173.736 160.431 173.805 160.164 173.944C159.908 174.072 159.69 174.243 159.508 174.456C159.327 174.669 159.183 174.915 159.076 175.192C158.98 175.469 158.916 175.752 158.884 176.04H163.012ZM166.702 172.92C167.043 172.835 167.497 172.744 168.062 172.648C168.627 172.552 169.278 172.504 170.014 172.504C170.675 172.504 171.225 172.6 171.662 172.792C172.099 172.973 172.446 173.235 172.702 173.576C172.969 173.907 173.155 174.307 173.262 174.776C173.369 175.245 173.422 175.763 173.422 176.328V181H171.934V176.648C171.934 176.136 171.897 175.699 171.822 175.336C171.758 174.973 171.646 174.68 171.486 174.456C171.326 174.232 171.113 174.072 170.846 173.976C170.579 173.869 170.249 173.816 169.854 173.816C169.694 173.816 169.529 173.821 169.358 173.832C169.187 173.843 169.022 173.859 168.862 173.88C168.713 173.891 168.574 173.907 168.446 173.928C168.329 173.949 168.243 173.965 168.19 173.976V181H166.702V172.92ZM177.281 172.68H180.433V173.928H177.281V177.768C177.281 178.184 177.313 178.531 177.377 178.808C177.441 179.075 177.537 179.288 177.665 179.448C177.793 179.597 177.953 179.704 178.145 179.768C178.337 179.832 178.561 179.864 178.817 179.864C179.265 179.864 179.623 179.816 179.889 179.72C180.167 179.613 180.359 179.539 180.465 179.496L180.753 180.728C180.604 180.803 180.343 180.893 179.969 181C179.596 181.117 179.169 181.176 178.689 181.176C178.124 181.176 177.655 181.107 177.281 180.968C176.919 180.819 176.625 180.6 176.401 180.312C176.177 180.024 176.017 179.672 175.921 179.256C175.836 178.829 175.793 178.339 175.793 177.784V170.36L177.281 170.104V172.68ZM185.566 176.856C185.566 176.12 185.673 175.48 185.886 174.936C186.099 174.381 186.382 173.923 186.734 173.56C187.086 173.197 187.491 172.925 187.95 172.744C188.409 172.563 188.878 172.472 189.358 172.472C190.478 172.472 191.337 172.824 191.934 173.528C192.531 174.221 192.83 175.283 192.83 176.712C192.83 176.776 192.83 176.861 192.83 176.968C192.83 177.064 192.825 177.155 192.814 177.24H187.118C187.182 178.104 187.433 178.76 187.87 179.208C188.307 179.656 188.99 179.88 189.918 179.88C190.441 179.88 190.878 179.837 191.23 179.752C191.593 179.656 191.865 179.565 192.046 179.48L192.254 180.728C192.073 180.824 191.753 180.925 191.294 181.032C190.846 181.139 190.334 181.192 189.758 181.192C189.033 181.192 188.403 181.085 187.87 180.872C187.347 180.648 186.915 180.344 186.574 179.96C186.233 179.576 185.977 179.123 185.806 178.6C185.646 178.067 185.566 177.485 185.566 176.856ZM191.278 176.04C191.289 175.368 191.118 174.819 190.766 174.392C190.425 173.955 189.95 173.736 189.342 173.736C189.001 173.736 188.697 173.805 188.43 173.944C188.174 174.072 187.955 174.243 187.774 174.456C187.593 174.669 187.449 174.915 187.342 175.192C187.246 175.469 187.182 175.752 187.15 176.04H191.278ZM197.784 179.928C198.136 179.928 198.445 179.923 198.712 179.912C198.989 179.891 199.218 179.859 199.4 179.816V177.336C199.293 177.283 199.117 177.24 198.872 177.208C198.637 177.165 198.349 177.144 198.008 177.144C197.784 177.144 197.544 177.16 197.288 177.192C197.042 177.224 196.813 177.293 196.6 177.4C196.397 177.496 196.226 177.635 196.088 177.816C195.949 177.987 195.88 178.216 195.88 178.504C195.88 179.037 196.05 179.411 196.392 179.624C196.733 179.827 197.197 179.928 197.784 179.928ZM197.656 172.472C198.253 172.472 198.754 172.552 199.16 172.712C199.576 172.861 199.906 173.08 200.152 173.368C200.408 173.645 200.589 173.981 200.696 174.376C200.802 174.76 200.856 175.187 200.856 175.656V180.856C200.728 180.877 200.546 180.909 200.312 180.952C200.088 180.984 199.832 181.016 199.544 181.048C199.256 181.08 198.941 181.107 198.6 181.128C198.269 181.16 197.938 181.176 197.608 181.176C197.138 181.176 196.706 181.128 196.312 181.032C195.917 180.936 195.576 180.787 195.288 180.584C195 180.371 194.776 180.093 194.616 179.752C194.456 179.411 194.376 179 194.376 178.52C194.376 178.061 194.466 177.667 194.648 177.336C194.84 177.005 195.096 176.739 195.416 176.536C195.736 176.333 196.109 176.184 196.536 176.088C196.962 175.992 197.41 175.944 197.88 175.944C198.029 175.944 198.184 175.955 198.344 175.976C198.504 175.987 198.653 176.008 198.792 176.04C198.941 176.061 199.069 176.083 199.176 176.104C199.282 176.125 199.357 176.141 199.4 176.152V175.736C199.4 175.491 199.373 175.251 199.32 175.016C199.266 174.771 199.17 174.557 199.032 174.376C198.893 174.184 198.701 174.035 198.456 173.928C198.221 173.811 197.912 173.752 197.528 173.752C197.037 173.752 196.605 173.789 196.232 173.864C195.869 173.928 195.597 173.997 195.416 174.072L195.24 172.84C195.432 172.755 195.752 172.675 196.2 172.6C196.648 172.515 197.133 172.472 197.656 172.472ZM209.846 179.928C210.198 179.928 210.507 179.923 210.774 179.912C211.051 179.891 211.281 179.859 211.462 179.816V177.336C211.355 177.283 211.179 177.24 210.934 177.208C210.699 177.165 210.411 177.144 210.07 177.144C209.846 177.144 209.606 177.16 209.35 177.192C209.105 177.224 208.875 177.293 208.662 177.4C208.459 177.496 208.289 177.635 208.15 177.816C208.011 177.987 207.942 178.216 207.942 178.504C207.942 179.037 208.113 179.411 208.454 179.624C208.795 179.827 209.259 179.928 209.846 179.928ZM209.718 172.472C210.315 172.472 210.817 172.552 211.222 172.712C211.638 172.861 211.969 173.08 212.214 173.368C212.47 173.645 212.651 173.981 212.758 174.376C212.865 174.76 212.918 175.187 212.918 175.656V180.856C212.79 180.877 212.609 180.909 212.374 180.952C212.15 180.984 211.894 181.016 211.606 181.048C211.318 181.08 211.003 181.107 210.662 181.128C210.331 181.16 210.001 181.176 209.67 181.176C209.201 181.176 208.769 181.128 208.374 181.032C207.979 180.936 207.638 180.787 207.35 180.584C207.062 180.371 206.838 180.093 206.678 179.752C206.518 179.411 206.438 179 206.438 178.52C206.438 178.061 206.529 177.667 206.71 177.336C206.902 177.005 207.158 176.739 207.478 176.536C207.798 176.333 208.171 176.184 208.598 176.088C209.025 175.992 209.473 175.944 209.942 175.944C210.091 175.944 210.246 175.955 210.406 175.976C210.566 175.987 210.715 176.008 210.854 176.04C211.003 176.061 211.131 176.083 211.238 176.104C211.345 176.125 211.419 176.141 211.462 176.152V175.736C211.462 175.491 211.435 175.251 211.382 175.016C211.329 174.771 211.233 174.557 211.094 174.376C210.955 174.184 210.763 174.035 210.518 173.928C210.283 173.811 209.974 173.752 209.59 173.752C209.099 173.752 208.667 173.789 208.294 173.864C207.931 173.928 207.659 173.997 207.478 174.072L207.302 172.84C207.494 172.755 207.814 172.675 208.262 172.6C208.71 172.515 209.195 172.472 209.718 172.472ZM220.765 174.44C220.584 174.291 220.323 174.147 219.981 174.008C219.64 173.869 219.267 173.8 218.861 173.8C218.435 173.8 218.067 173.88 217.757 174.04C217.459 174.189 217.213 174.403 217.021 174.68C216.829 174.947 216.691 175.267 216.605 175.64C216.52 176.013 216.477 176.413 216.477 176.84C216.477 177.811 216.717 178.563 217.197 179.096C217.677 179.619 218.317 179.88 219.117 179.88C219.523 179.88 219.859 179.864 220.125 179.832C220.403 179.789 220.616 179.747 220.765 179.704V174.44ZM220.765 168.84L222.253 168.584V180.76C221.912 180.856 221.475 180.952 220.941 181.048C220.408 181.144 219.795 181.192 219.101 181.192C218.461 181.192 217.885 181.091 217.373 180.888C216.861 180.685 216.424 180.397 216.061 180.024C215.699 179.651 215.416 179.197 215.213 178.664C215.021 178.12 214.925 177.512 214.925 176.84C214.925 176.2 215.005 175.613 215.165 175.08C215.336 174.547 215.581 174.088 215.901 173.704C216.221 173.32 216.611 173.021 217.069 172.808C217.539 172.595 218.072 172.488 218.669 172.488C219.149 172.488 219.571 172.552 219.933 172.68C220.307 172.808 220.584 172.931 220.765 173.048V168.84ZM226.571 180.136C226.571 180.424 226.475 180.675 226.283 180.888C226.091 181.101 225.83 181.208 225.499 181.208C225.169 181.208 224.907 181.101 224.715 180.888C224.523 180.675 224.427 180.424 224.427 180.136C224.427 179.848 224.523 179.597 224.715 179.384C224.907 179.171 225.169 179.064 225.499 179.064C225.83 179.064 226.091 179.171 226.283 179.384C226.475 179.597 226.571 179.848 226.571 180.136Z" fill="#787A80"/>
<g clip-path="url(#clip0_2111_1858)">
<path d="M157.054 2.09001C150.884 1.44159 145.338 5.93317 144.689 12.1024L143.562 22.8246C143.481 23.597 144.042 24.289 144.814 24.3702L145.28 24.4192L144.104 35.6075C143.564 40.7486 147.307 45.3708 152.448 45.9111C157.589 46.4515 162.211 42.7085 162.751 37.5674L163.927 26.3791L164.394 26.4281C165.166 26.5092 165.858 25.9489 165.939 25.1765L167.066 14.4543C167.714 8.28506 163.223 2.73842 157.054 2.09001ZM156.76 4.8871C161.387 5.37341 164.755 9.53339 164.269 14.1603L163.877 17.8898L147.094 16.1259L147.486 12.3964C147.973 7.76947 152.133 4.40079 156.76 4.8871ZM146.506 21.7201L146.8 18.923L163.583 20.6869L163.289 23.484L146.506 21.7201ZM159.954 37.2735C159.576 40.8722 156.341 43.4923 152.742 43.114C149.143 42.7358 146.523 39.5003 146.901 35.9015L148.077 24.7131L161.13 26.0851L159.954 37.2735Z" fill="#FF5A30"/>
<path d="M151.171 40.1218L154.9 40.5138C155.673 40.595 156.365 40.0346 156.446 39.2622C156.527 38.4899 155.967 37.7979 155.194 37.7167L151.465 37.3247C150.693 37.2435 150.001 37.8039 149.919 38.5763C149.838 39.3487 150.399 40.0406 151.171 40.1218Z" fill="#FF5A30"/>
<path d="M128.947 2.08968C122.778 2.7381 118.286 8.28473 118.935 14.454L120.062 25.1762C120.143 25.9486 120.835 26.5089 121.607 26.4277L122.073 26.3787L123.249 37.5671C123.79 42.7082 128.412 46.4511 133.553 45.9108C138.694 45.3705 142.437 40.7483 141.897 35.6072L140.721 24.4188L141.187 24.3698C141.959 24.2887 142.52 23.5967 142.438 22.8243L141.311 12.1021C140.663 5.93284 135.116 1.44126 128.947 2.08968ZM122.712 23.4837L122.418 20.6866L139.2 18.9226L139.494 21.7197L122.712 23.4837ZM139.1 35.9012C139.478 39.4999 136.858 42.7355 133.259 43.1137C129.66 43.492 126.425 40.8719 126.046 37.2731L124.87 26.0848L137.924 24.7128L139.1 35.9012ZM138.906 16.1255L122.124 17.8895L121.732 14.16C121.246 9.53306 124.614 5.37308 129.241 4.88677C133.868 4.40046 138.028 7.76914 138.514 12.3961L138.906 16.1255Z" fill="#FF5A30"/>
<path d="M131.1 40.5134L134.829 40.1214C135.602 40.0402 136.162 39.3482 136.081 38.5759C136 37.8035 135.308 37.2431 134.535 37.3243L130.806 37.7163C130.033 37.7975 129.473 38.4895 129.554 39.2618C129.635 40.0342 130.327 40.5946 131.1 40.5134Z" fill="#FF5A30"/>
</g>
<defs>
<clipPath id="clip0_2111_1858">
<rect width="48" height="48" fill="white" transform="translate(119)"/>
</clipPath>
</defs>
</svg>
