<svg width="405" height="425" viewBox="0 0 405 425" fill="none" xmlns="http://www.w3.org/2000/svg">
<g filter="url(#filter0_dddd_2111_1838)">
<rect x="60" width="285" height="285" rx="4" fill="white"/>
<rect x="60.5" y="0.5" width="284" height="284" rx="3.5" stroke="#E5E8ED"/>
<g clip-path="url(#clip0_2111_1838)">
<path d="M219.359 93.5703C219.359 91.0503 217.309 89 214.789 89H184.32C181.8 89 179.75 91.0503 179.75 93.5703V102.711C179.75 105.231 181.8 107.281 184.32 107.281H214.789C217.309 107.281 219.359 105.231 219.359 102.711V101.188H220.883C221.723 101.188 222.406 101.871 222.406 102.711V108.805C222.406 109.645 221.723 110.328 220.883 110.328H202.602C200.082 110.328 198.031 112.378 198.031 114.898V119.469H196.508C195.666 119.469 194.984 120.151 194.984 120.992V127.003L193.461 133.195C192.47 137.157 195.464 141 199.555 141C203.647 141 206.638 137.153 205.65 133.201L204.125 127.003V120.992C204.125 120.151 203.443 119.469 202.602 119.469H201.078V114.898C201.078 114.059 201.762 113.375 202.602 113.375H220.883C223.403 113.375 225.453 111.325 225.453 108.805V102.711C225.453 100.191 223.403 98.1406 220.883 98.1406H219.359V93.5703ZM201.078 122.516V125.664H198.031V122.516H201.078ZM199.555 137.953C197.456 137.953 195.904 135.983 196.418 133.929L197.702 128.711H201.407L202.692 133.934C203.203 135.975 201.661 137.953 199.555 137.953ZM184.32 92.0469H214.789C215.629 92.0469 216.312 92.7304 216.312 93.5703V95.0938H211.742C210.262 95.0938 208.368 95.6484 206.176 96.2903C203.215 97.1575 199.859 98.1406 196.508 98.1406C193.241 98.1406 190.938 97.1865 188.906 96.345C187.353 95.7015 185.885 95.0938 184.32 95.0938H182.797V93.5703C182.797 92.7304 183.48 92.0469 184.32 92.0469ZM216.312 102.711C216.312 103.551 215.629 104.234 214.789 104.234H184.32C183.48 104.234 182.797 103.551 182.797 102.711V98.1406H184.32C185.279 98.1406 186.365 98.5905 187.74 99.1598C189.921 100.063 192.635 101.188 196.508 101.188C200.296 101.188 204.031 100.093 207.033 99.2146C208.918 98.6623 210.699 98.1406 211.742 98.1406H216.312V102.711Z" fill="#FF5A30"/>
<path d="M172.379 172.98C174.459 172.98 176.052 173.353 177.159 174.1C178.265 174.833 178.819 175.98 178.819 177.54C178.819 178.513 178.592 179.307 178.139 179.92C177.699 180.52 177.059 180.993 176.219 181.34C176.499 181.687 176.792 182.087 177.099 182.54C177.405 182.98 177.705 183.447 177.999 183.94C178.305 184.42 178.599 184.927 178.879 185.46C179.159 185.98 179.419 186.493 179.659 187H176.159C175.905 186.547 175.645 186.087 175.379 185.62C175.125 185.153 174.859 184.7 174.579 184.26C174.312 183.82 174.045 183.407 173.779 183.02C173.512 182.62 173.245 182.26 172.979 181.94H171.439V187H168.319V173.34C168.999 173.207 169.699 173.113 170.419 173.06C171.152 173.007 171.805 172.98 172.379 172.98ZM172.559 175.64C172.332 175.64 172.125 175.647 171.939 175.66C171.765 175.673 171.599 175.687 171.439 175.7V179.46H172.319C173.492 179.46 174.332 179.313 174.839 179.02C175.345 178.727 175.599 178.227 175.599 177.52C175.599 176.84 175.339 176.36 174.819 176.08C174.312 175.787 173.559 175.64 172.559 175.64ZM180.451 181.82C180.451 180.887 180.591 180.073 180.871 179.38C181.164 178.673 181.544 178.087 182.011 177.62C182.477 177.153 183.011 176.8 183.611 176.56C184.224 176.32 184.851 176.2 185.491 176.2C186.984 176.2 188.164 176.66 189.031 177.58C189.897 178.487 190.331 179.827 190.331 181.6C190.331 181.773 190.324 181.967 190.311 182.18C190.297 182.38 190.284 182.56 190.271 182.72H183.511C183.577 183.333 183.864 183.82 184.371 184.18C184.877 184.54 185.557 184.72 186.411 184.72C186.957 184.72 187.491 184.673 188.011 184.58C188.544 184.473 188.977 184.347 189.311 184.2L189.711 186.62C189.551 186.7 189.337 186.78 189.071 186.86C188.804 186.94 188.504 187.007 188.171 187.06C187.851 187.127 187.504 187.18 187.131 187.22C186.757 187.26 186.384 187.28 186.011 187.28C185.064 187.28 184.237 187.14 183.531 186.86C182.837 186.58 182.257 186.2 181.791 185.72C181.337 185.227 180.997 184.647 180.771 183.98C180.557 183.313 180.451 182.593 180.451 181.82ZM187.451 180.68C187.437 180.427 187.391 180.18 187.311 179.94C187.244 179.7 187.131 179.487 186.971 179.3C186.824 179.113 186.631 178.96 186.391 178.84C186.164 178.72 185.877 178.66 185.531 178.66C185.197 178.66 184.911 178.72 184.671 178.84C184.431 178.947 184.231 179.093 184.071 179.28C183.911 179.467 183.784 179.687 183.691 179.94C183.611 180.18 183.551 180.427 183.511 180.68H187.451ZM199.37 181.82C199.37 180.9 199.164 180.167 198.75 179.62C198.337 179.06 197.724 178.78 196.91 178.78C196.644 178.78 196.397 178.793 196.17 178.82C195.944 178.833 195.757 178.853 195.61 178.88V184.26C195.797 184.38 196.037 184.48 196.33 184.56C196.637 184.64 196.944 184.68 197.25 184.68C198.664 184.68 199.37 183.727 199.37 181.82ZM202.41 181.74C202.41 182.553 202.31 183.293 202.11 183.96C201.91 184.627 201.617 185.2 201.23 185.68C200.844 186.16 200.364 186.533 199.79 186.8C199.217 187.067 198.557 187.2 197.81 187.2C197.397 187.2 197.01 187.16 196.65 187.08C196.29 187 195.944 186.887 195.61 186.74V190.7H192.63V176.84C192.897 176.76 193.204 176.687 193.55 176.62C193.897 176.54 194.257 176.473 194.63 176.42C195.017 176.367 195.404 176.327 195.79 176.3C196.19 176.26 196.57 176.24 196.93 176.24C197.797 176.24 198.57 176.373 199.25 176.64C199.93 176.893 200.504 177.26 200.97 177.74C201.437 178.207 201.79 178.78 202.03 179.46C202.284 180.14 202.41 180.9 202.41 181.74ZM208.721 184.92C209.014 184.92 209.294 184.913 209.561 184.9C209.827 184.887 210.041 184.867 210.201 184.84V182.58C210.081 182.553 209.901 182.527 209.661 182.5C209.421 182.473 209.201 182.46 209.001 182.46C208.721 182.46 208.454 182.48 208.201 182.52C207.961 182.547 207.747 182.607 207.561 182.7C207.374 182.793 207.227 182.92 207.121 183.08C207.014 183.24 206.961 183.44 206.961 183.68C206.961 184.147 207.114 184.473 207.421 184.66C207.741 184.833 208.174 184.92 208.721 184.92ZM208.481 176.2C209.361 176.2 210.094 176.3 210.681 176.5C211.267 176.7 211.734 176.987 212.081 177.36C212.441 177.733 212.694 178.187 212.841 178.72C212.987 179.253 213.061 179.847 213.061 180.5V186.7C212.634 186.793 212.041 186.9 211.281 187.02C210.521 187.153 209.601 187.22 208.521 187.22C207.841 187.22 207.221 187.16 206.661 187.04C206.114 186.92 205.641 186.727 205.241 186.46C204.841 186.18 204.534 185.82 204.321 185.38C204.107 184.94 204.001 184.4 204.001 183.76C204.001 183.147 204.121 182.627 204.361 182.2C204.614 181.773 204.947 181.433 205.361 181.18C205.774 180.927 206.247 180.747 206.781 180.64C207.314 180.52 207.867 180.46 208.441 180.46C208.827 180.46 209.167 180.48 209.461 180.52C209.767 180.547 210.014 180.587 210.201 180.64V180.36C210.201 179.853 210.047 179.447 209.741 179.14C209.434 178.833 208.901 178.68 208.141 178.68C207.634 178.68 207.134 178.72 206.641 178.8C206.147 178.867 205.721 178.967 205.361 179.1L204.981 176.7C205.154 176.647 205.367 176.593 205.621 176.54C205.887 176.473 206.174 176.42 206.481 176.38C206.787 176.327 207.107 176.287 207.441 176.26C207.787 176.22 208.134 176.2 208.481 176.2ZM218.735 187H215.755V176.48H218.735V187ZM219.015 173.44C219.015 173.987 218.835 174.42 218.475 174.74C218.129 175.047 217.715 175.2 217.235 175.2C216.755 175.2 216.335 175.047 215.975 174.74C215.629 174.42 215.455 173.987 215.455 173.44C215.455 172.893 215.629 172.467 215.975 172.16C216.335 171.84 216.755 171.68 217.235 171.68C217.715 171.68 218.129 171.84 218.475 172.16C218.835 172.467 219.015 172.893 219.015 173.44ZM227.877 179.12C227.61 179.053 227.297 178.987 226.937 178.92C226.577 178.84 226.19 178.8 225.777 178.8C225.59 178.8 225.363 178.82 225.097 178.86C224.843 178.887 224.65 178.92 224.517 178.96V187H221.537V177.04C222.07 176.853 222.697 176.68 223.417 176.52C224.15 176.347 224.963 176.26 225.857 176.26C226.017 176.26 226.21 176.273 226.437 176.3C226.663 176.313 226.89 176.34 227.117 176.38C227.343 176.407 227.57 176.447 227.797 176.5C228.023 176.54 228.217 176.593 228.377 176.66L227.877 179.12ZM232.994 184.86C233.541 184.86 233.928 184.807 234.154 184.7C234.381 184.593 234.494 184.387 234.494 184.08C234.494 183.84 234.348 183.633 234.054 183.46C233.761 183.273 233.314 183.067 232.714 182.84C232.248 182.667 231.821 182.487 231.434 182.3C231.061 182.113 230.741 181.893 230.474 181.64C230.208 181.373 230.001 181.06 229.854 180.7C229.708 180.34 229.634 179.907 229.634 179.4C229.634 178.413 230.001 177.633 230.734 177.06C231.468 176.487 232.474 176.2 233.754 176.2C234.394 176.2 235.008 176.26 235.594 176.38C236.181 176.487 236.648 176.607 236.994 176.74L236.474 179.06C236.128 178.94 235.748 178.833 235.334 178.74C234.934 178.647 234.481 178.6 233.974 178.6C233.041 178.6 232.574 178.86 232.574 179.38C232.574 179.5 232.594 179.607 232.634 179.7C232.674 179.793 232.754 179.887 232.874 179.98C232.994 180.06 233.154 180.153 233.354 180.26C233.568 180.353 233.834 180.46 234.154 180.58C234.808 180.82 235.348 181.06 235.774 181.3C236.201 181.527 236.534 181.78 236.774 182.06C237.028 182.327 237.201 182.627 237.294 182.96C237.401 183.293 237.454 183.68 237.454 184.12C237.454 185.16 237.061 185.947 236.274 186.48C235.501 187.013 234.401 187.28 232.974 187.28C232.041 187.28 231.261 187.2 230.634 187.04C230.021 186.88 229.594 186.747 229.354 186.64L229.854 184.22C230.361 184.42 230.881 184.58 231.414 184.7C231.948 184.807 232.474 184.86 232.994 184.86Z" fill="#1E212C"/>
</g>
</g>
<defs>
<filter id="filter0_dddd_2111_1838" x="0" y="0" width="405" height="425" filterUnits="userSpaceOnUse" color-interpolation-filters="sRGB">
<feFlood flood-opacity="0" result="BackgroundImageFix"/>
<feColorMatrix in="SourceAlpha" type="matrix" values="0 0 0 0 0 0 0 0 0 0 0 0 0 0 0 0 0 0 127 0" result="hardAlpha"/>
<feMorphology radius="4" operator="erode" in="SourceAlpha" result="effect1_dropShadow_2111_1838"/>
<feOffset dy="4"/>
<feGaussianBlur stdDeviation="2"/>
<feColorMatrix type="matrix" values="0 0 0 0 0.117647 0 0 0 0 0.129412 0 0 0 0 0.172549 0 0 0 0.03 0"/>
<feBlend mode="normal" in2="BackgroundImageFix" result="effect1_dropShadow_2111_1838"/>
<feColorMatrix in="SourceAlpha" type="matrix" values="0 0 0 0 0 0 0 0 0 0 0 0 0 0 0 0 0 0 127 0" result="hardAlpha"/>
<feMorphology radius="6" operator="erode" in="SourceAlpha" result="effect2_dropShadow_2111_1838"/>
<feOffset dy="12"/>
<feGaussianBlur stdDeviation="5"/>
<feColorMatrix type="matrix" values="0 0 0 0 0.603922 0 0 0 0 0.611765 0 0 0 0 0.647059 0 0 0 0.04 0"/>
<feBlend mode="normal" in2="effect1_dropShadow_2111_1838" result="effect2_dropShadow_2111_1838"/>
<feColorMatrix in="SourceAlpha" type="matrix" values="0 0 0 0 0 0 0 0 0 0 0 0 0 0 0 0 0 0 127 0" result="hardAlpha"/>
<feMorphology radius="10" operator="erode" in="SourceAlpha" result="effect3_dropShadow_2111_1838"/>
<feOffset dy="30"/>
<feGaussianBlur stdDeviation="12"/>
<feColorMatrix type="matrix" values="0 0 0 0 0.603922 0 0 0 0 0.611765 0 0 0 0 0.647059 0 0 0 0.05 0"/>
<feBlend mode="normal" in2="effect2_dropShadow_2111_1838" result="effect3_dropShadow_2111_1838"/>
<feColorMatrix in="SourceAlpha" type="matrix" values="0 0 0 0 0 0 0 0 0 0 0 0 0 0 0 0 0 0 127 0" result="hardAlpha"/>
<feMorphology radius="20" operator="erode" in="SourceAlpha" result="effect4_dropShadow_2111_1838"/>
<feOffset dy="80"/>
<feGaussianBlur stdDeviation="40"/>
<feColorMatrix type="matrix" values="0 0 0 0 0.603922 0 0 0 0 0.611765 0 0 0 0 0.647059 0 0 0 0.08 0"/>
<feBlend mode="normal" in2="effect3_dropShadow_2111_1838" result="effect4_dropShadow_2111_1838"/>
<feBlend mode="normal" in="SourceGraphic" in2="effect4_dropShadow_2111_1838" result="shape"/>
</filter>
<clipPath id="clip0_2111_1838">
<rect width="72" height="106" fill="white" transform="translate(166.5 89)"/>
</clipPath>
</defs>
</svg>
